<svg xmlns="http://www.w3.org/2000/svg" viewBox="0 0 2400 1600"><rect width="2400" height="1600" style="fill:#fff"/><path d="M1756.2356,1098.2,683.231,990.9975C605.5273,766.44,634.187,501.5784,771.7049,269.6652L1667.64,180.1217c-106.85,286.8369-78.2818,623.4607,88.626,918.0483Z" style="fill:#d3112a"/><path d="M1234.3947,304.8745c-2.0063,0-5.58.0012-5.9215,1.189a11.7534,11.7534,0,0,0,2.7285,7.0467c7.6093,7.32,7.1608,12.0547,6.2989,13.0495-.8918,1.0393.0095,6.599-4.7314-.899a25.7237,25.7237,0,0,0-31.2039-10.3816c-1.8726,0-2.2931-.0025-2.2931,2.5809a9.1856,9.1856,0,0,0,2.4092,5.5968,26.4409,26.4409,0,0,0-21.538,6.7277c-1.3375,1.4848.0047,4.4579,1.0449,6.0318a4.5917,4.5917,0,0,0,2.148,1.8849,30.2648,30.2648,0,0,0-14.3393,28.68c4.741,26.7253,32.4481,39.4769,75.9634,34.7406a347.41,347.41,0,0,0,77.85-19.8062c16.229-5.5975,34.5953-12.05,55.8476-18.2113a122.48,122.48,0,0,1,91.4928,5.3068,43.069,43.069,0,0,1,22.0024,25.693,22.9378,22.9378,0,0,1-5.0507,19.9222,53.7378,53.7378,0,0,1-47.8073,18.3853,416.91,416.91,0,0,1-62.06-7.1917c-15.6494-2.732-35.1859-6.0346-65.92-9.6277a393.9225,393.9225,0,0,0-68.5034-1.0149h-15.2682a191.6457,191.6457,0,0,1-40.3764-1.3339,92.4657,92.4657,0,0,1-46.82-17.2253c-1.1889-2.8656,7.19-5.9559,14.3684-7.3367a4.5872,4.5872,0,0,0,0-9.0477c-3.73-.7423-14.3684-4.1392-14.3684-10.0336a78.9984,78.9984,0,0,0-5.6021-21.8071,26.7019,26.7019,0,0,0,1.48-20.6762,14.34,14.34,0,0,0-5.1668-8.1777,26.5918,26.5918,0,0,0-22.1185,5.5968,74.6067,74.6067,0,0,0-25.7178-5.4518h-1.5674a74.459,74.459,0,0,0-27.7207,6.0318,26.8736,26.8736,0,0,0-22.5539-6.0318,14.3406,14.3406,0,0,0-5.1668,8.1777,26.7021,26.7021,0,0,0,1.7416,20.5312l1.3352,2.2909a91.76,91.76,0,0,0-2.148,20.7922c0,4.3057-11.5114,8.47-16.3712,9.6276-1.7239,0-4.1438.8672-4.4411,2.8419a6.3107,6.3107,0,0,0,4.4411,6.1767c8.3375,1.8708,14.3683,6.0281,14.3683,7.4237-1.1889,6.4586-13.0727,11.6242-16.9517,13.05-3.8789,1.4848-3.5772,1.878-3.28,4.0309a6.6106,6.6106,0,0,0,5.0217,4.9008c5.0233,0,14.349,2.849,15.7906,6.8727a14.3362,14.3362,0,0,1-3.7445,8.0327,207.1469,207.1469,0,0,1-62.611-15.1954c-11.6367-5.746-30.7422-16.0628-34.3388-18.6463a194.9574,194.9574,0,0,1-31.0007-30.8548,42.1746,42.1746,0,0,0-6.473-10.7586A24.5763,24.5763,0,0,0,869.8749,350.2l-3.4542-4.7558c-4.741-6.1766-15.493-7.58-33.1488-4.0019l-2.3221-1.8849c-10.0614-7.32-25.71,4.46-27.2853,5.9448s-1.1889,3.436,0,5.3067a4.5931,4.5931,0,0,0,4.9056,2.7259,22.8656,22.8656,0,0,1,7.8953,0,42.1009,42.1009,0,0,0,4.7314,6.9018l-6.6182,3.3058c-1.5753,1.1878-1.3375,3.4361,0,5.3068a4.592,4.592,0,0,0,4.47,3.1609,28.7526,28.7526,0,0,1,11.2043,1.4789l5.7474,6.0318,1.8867,2.0009c-3.1655,1.5739-6.4853,2.8753-7.1987,3.3059a5.4,5.4,0,0,0,0,5.5968,4.7409,4.7409,0,0,0,4.47,3.1609,28.7531,28.7531,0,0,1,11.2044,1.4789l3.1639,5.3068a36.1483,36.1483,0,0,0,7.75,12.0635,32.8994,32.8994,0,0,0,14.3683,7.4237,34.3441,34.3441,0,0,1,14.3683,6.9017l2.7285,2.291,4.8766,4.0308c2.8683,2.3013,3.89,4.1443,3.89,4.8718,0,.7423-1.5037,1.1886-2.99,2.4359a5.7412,5.7412,0,0,0,0,6.3217,4.5933,4.5933,0,0,0,5.0507,2.5809c11.4881-2.3013,19.2989.001,20.0866,2.4359.7431,2.435-2.1464,4.4431-7.17,7.8877a5.0151,5.0151,0,0,0-.9,6.4668,4.5943,4.5943,0,0,0,5.7474,2.1459c13.0635-4.8848,23.7962-3.5931,25.2824,0s-2.318,6.03-9.9272,11.0486a5.0149,5.0149,0,0,0-.8708,6.6117,4.5946,4.5946,0,0,0,6.0086,1.8559c14.3565-6.4586,25.5834-5.3075,27.6046-1.5659s-3.6128,9.8958-12.946,15.7754c-1.189,0,.0208,1.8981-.8708,3.19a4.5922,4.5922,0,0,0,6.5891,4.7268h.9a34.7909,34.7909,0,0,1,28.7367-3.8858,60.6142,60.6142,0,0,1,5.0216,3.4509s1.7186-1.1939-2.8736,2.7259c-63.9056,54.9354-79.7279,71.7543-100.5492,78.7029h-2.7285a49.8763,49.8763,0,0,0-10.1885-1.885,15.5206,15.5206,0,0,0-13.4975,6.7568h-6.6181c-7.9065,0-15.2059,3.1551-20.9574,15.7753a39.2814,39.2814,0,0,0-2.5834,15.92,4.5878,4.5878,0,0,0,2.5834,4.0309,26.1655,26.1655,0,0,0,10.7689,1.1889,4.59,4.59,0,0,0,4.47-4.1468,18.2209,18.2209,0,0,1,1.5674-5.1618,23.7318,23.7318,0,0,0,0,5.4228,4.5907,4.5907,0,0,0,4.296,3.8858,82.6373,82.6373,0,0,0,12.22,0,4.5935,4.5935,0,0,0,3.164-1.8559c.7431-1.1878,0-2.0072,0-3.5959a34.8584,34.8584,0,0,1,5.9505-14.3544,86.039,86.039,0,0,0-2.6124,15.0794,4.5892,4.5892,0,0,0,4.18,4.8718,177.546,177.546,0,0,0,44.237-1.1889c11.2058-3.2962,13.3761-6.8756,16.0809-12.3246l1.5675-3.1608a23.9692,23.9692,0,0,1,8.36-10.0626,19.5372,19.5372,0,0,1,15.21-6.6118,5.0191,5.0191,0,0,1,2.4383,3.4509,4.74,4.74,0,0,0,4.4411,3.3059,4.5916,4.5916,0,0,0,4.325-3.4509c2.4373-9.7548,7.7565-15.771,11.2044-15.34,3.4479.4454,4.7367,3.9967,5.7473,9.1636a4.593,4.593,0,0,0,9.0564,0c.8917-13.0509,6.4581-20.9371,10.1884-20.9371,2.7346,0,6.3086,4.5785,7.75,12.76a4.5933,4.5933,0,0,0,8.7952-1.189,30.8323,30.8323,0,0,1,6.7632-22.3871,6.3179,6.3179,0,0,1,4.296-2.2909c4.0275,0,9.3353,6.1858,11.0593,16.9353a4.639,4.639,0,0,0,9.2032-1.1758l-.0017-.0131V577.29a32.64,32.64,0,0,1,5.95-22.9671,8.7713,8.7713,0,0,1,6.0376-3.3059c4.7409,0,9.7514,4.6,12.917,12.4985a4.5927,4.5927,0,0,0,8.94-1.5659c0-5.3154,9.3093-12.0591,22.67-13.4845l5.1959.1455a50.7374,50.7374,0,0,0,22.4087-3.7408,81.2623,81.2623,0,0,0,16.6615-15.4854,116.1859,116.1859,0,0,1,38.8089-30.5938,291.05,291.05,0,0,1,40.8118-12.4695,19.9549,19.9549,0,0,0-9.753,7.8877,41.4381,41.4381,0,0,0,5.9215,48.7761l1.8867,2.4359c9.4818,12.3382,9.9128,14.344,7.4309,16.6453-4.7409,4.4542-10.207,8.7674-14.3683,12.0635s-4.89,3.8736-6.1827,5.0168l-4.0348,4.0309c-2.9723,3.1625-6.0227,7.7392-7.8953,7.8877h-2.4382a47.2919,47.2919,0,0,0-9.637-1.711,14.3617,14.3617,0,0,0-12.6267,6.0318h-4.296a21.2361,21.2361,0,0,0-20.2607,14.3254,34.2688,34.2688,0,0,0-2.7286,15.0794,4.5881,4.5881,0,0,0,2.7286,4.0309,28.7532,28.7532,0,0,0,10.769,1.1889,4.4167,4.4167,0,0,1,8.6209,0,78.1957,78.1957,0,0,0,11.4947,0,4.5928,4.5928,0,0,0,3.28-1.8849,6.1705,6.1705,0,0,0,0-3.5959,30.2578,30.2578,0,0,1,4.47-11.3095,80.1091,80.1091,0,0,0-2.0029,12.1795,4.5889,4.5889,0,0,0,4.1218,5.014l.0291.0028s10.6215.899,21.2476.899a83.3009,83.3009,0,0,0,20.2608-1.8849c12.0678-3.4446,14.3578-7.1542,16.6615-14.3254a4.59,4.59,0,0,0,0-1.0439,14.3348,14.3348,0,0,1,3.309-7.4237c10.4033-12.62,21.8187-17.3685,26.56-14.3545l2.177,1.3339a4.59,4.59,0,0,0,6.444-6.1767c-2.7345-4.7364-3.59-8.91-2.148-10.4686,1.4862-1.559,8.19-2.1262,16.6615,1.363a4.5208,4.5208,0,0,0,3.4542-8.3517c-9.4819-3.8752-15.81-9.8861-14.3684-14.3254,1.4862-4.4394,8.49-7.7471,18.4031-8.1777a4.5873,4.5873,0,0,0,1.0159-9.0476l-4.8765-1.479a40.9313,40.9313,0,0,1-24.15-11.4835c-.4458-2.3014,5.9515-7.0551,19.5351-10.4106a81.8858,81.8858,0,0,1,17.0969,8.6126,165.2534,165.2534,0,0,0,37.3576,16.9354,556.2374,556.2374,0,0,0,68.0681,8.0327,28.6852,28.6852,0,0,1,11.0592,32.2757c-2.0064,4.0236-5.9292,11.6371-9.3176,11.8895h-2.8737a56.3619,56.3619,0,0,0-10.6238-1.74,16.667,16.667,0,0,0-14.3683,6.3217H1406.96a22.6194,22.6194,0,0,0-21.2477,14.3545,35.409,35.409,0,0,0-2.7576,15.63,4.5881,4.5881,0,0,0,2.7576,4.0018,29.6174,29.6174,0,0,0,11.03,1.1889,4.3107,4.3107,0,0,1,8.4759,0,96.4382,96.4382,0,0,0,12.8008,0,4.5934,4.5934,0,0,0,3.28-1.8559,7.164,7.164,0,0,0,0-3.7408,35.1434,35.1434,0,0,1,6.9084-14.3255,76.3964,76.3964,0,0,0-2.99,15.1954,4.589,4.589,0,0,0,4.1355,5.0027q.0946.009.1895.0141c.8917,0,13.0739.8991,25.5727.8991a101.4957,101.4957,0,0,0,22.67-1.885c10.0614-2.7319,16.9579-13.34,20.4059-31.2607a53.0255,53.0255,0,0,0,.9-7.9167c0-7.0377-1.0449-15.7794-1.0449-27.9839,0-15.6344,6.0369-25.5411,11.64-25.838h1.3353a4.5873,4.5873,0,0,0,.7257-9.0477c-11.2058-2.5834-15.6342-6.89-15.5-8.6126,0-1.7223,2.442-3.726,8.4759-5.5968h1.7125a4.5878,4.5878,0,0,0-2.8736-8.6133c-9.63,1.7223-17.8339.0178-19.8254-3.8569s.0178-7.1857,4.18-11.7735l.7257-1.189a4.5846,4.5846,0,0,0-.9-5.3068,6.47,6.47,0,0,0-6.0085-1.189,92.4065,92.4065,0,0,1-32.1909,11.7736h-4.4411a103.0638,103.0638,0,0,1-22.9893-4.1759,59.1737,59.1737,0,0,1-30.1589-22.6771,100.9042,100.9042,0,0,0-8.1856-9.0186l-3.7445-3.4508,7.1987.725a383.9591,383.9591,0,0,1,49.3747,2.03l-.1158.0876c35.6682,2.1529,67.64-11.0537,81.5655-33.7257a48.0364,48.0364,0,0,0,0-51.357,93.2174,93.2174,0,0,0-62.4078-41.3233,186.8984,186.8984,0,0,0-84.4683,4.1468c-12.35,3.1625-25.7025,7.053-41.2181,12.3535a676.4237,676.4237,0,0,1-87.69,25.664,59.0836,59.0836,0,0,1-34.31-3.2769,8.4594,8.4594,0,0,1-2.7575-5.4518c0-1.8708,5.4716-5.4483,21.5669-5.5967,70.6678,0,90.3283-37.0063,92.3346-41.1784a4.7991,4.7991,0,0,0-7.315-5.7714,86.2644,86.2644,0,0,1-45.8335,11.1935,24.2616,24.2616,0,0,1-7.17-6.0027A32.4652,32.4652,0,0,0,1234.3947,304.8745Zm-152.2461,99.5821a32.2042,32.2042,0,0,0,17.242,2.4359,33.5386,33.5386,0,0,1-2.0028,4.5818c-.8918,1.7223-1.7249,3.4395-2.4383,5.1618-3.1656,7.1713-5.3323,11.0486-12.5106,11.0486-7.0445,0-9.1822-4.1382-12.4816-11.31-.743-1.5738-1.5939-3.3156-2.3221-4.7558a33.0008,33.0008,0,0,1-2.0029-4.5818,33.0663,33.0663,0,0,0,16.6615-2.4359l-.1457-.1455Z" style="fill:#72141b"/><path d="M1228.88,307.0784c10.4776,10.0517,10.0528,19.3075,5.3119,20.7922a6.9,6.9,0,0,1-8.04-2.03,24.282,24.282,0,0,0-26.9951-9.1636s12.4876,4.009,9.7531,9.8886c0,.8908-2.1578,1.0405-3.5994,1.189a9.1938,9.1938,0,0,1-3.57,0,16.9537,16.9537,0,0,0-21.6831,3.7408s8.9113-1.7258,10.769,2.0009c-13.6431,6.6071-24.0043,16.9236-21.567,30.42,4.8895,27.8389,36.7887,34.5639,70.9708,30.9708,40.4983-4.3058,75.1067-22.0985,132.711-38.7425s110.46,1.3445,119.2134,34.3057c4.5923,17.223-10.6438,43.0491-57.4732,41.1784s-58.5838-8.74-128.2409-16.9064a509.5132,509.5132,0,0,0-83.2491,0,194.6484,194.6484,0,0,1-41.2182-1.4789c-14.3564-2.1529-50.3951-9.0655-50.8261-18.82-.4458-9.7547,18.5192-11.8605,18.5192-11.8605s-17.6685-3.6049-18.6643-14.3544a84.1586,84.1586,0,0,0-5.1668-23.0831l1.3352-2.03a21.0812,21.0812,0,0,0-1.48-22.5032,24,24,0,0,0-19.1,6.8728,56.3867,56.3867,0,0,0-56.6024-1.131,24.0008,24.0008,0,0,0-20.5511-7.0467,21.0813,21.0813,0,0,0-1.48,22.5321,28.6889,28.6889,0,0,0,2.4382,3.8568,71.6838,71.6838,0,0,0-4.5862,21.8362c-.7431,9.4726-18.0952,14.3254-18.2289,14.3254,0,0,19.6591,4.6076,18.0837,12.7885-1.7239,10.7644-18.8094,16.0654-18.8094,16.0654s17.8339,1.546,19.8254,10.44c.8917,3.8751-2.595,7.3351-7.0535,12.3535a204.5446,204.5446,0,0,1-66.4716-15.4564,403.1417,403.1417,0,0,1-35.6741-19.2842,199.0539,199.0539,0,0,1-30.8846-30.8548,40.0786,40.0786,0,0,0-5.7473-9.9176,20.55,20.55,0,0,0-17.5323-6.7278c-1.7239-2.5834-3.8728-5.4536-4.5862-6.6117-4.5923-6.1765-19.9536-4.1424-31.2039-1.8559a18.3755,18.3755,0,0,0-3.3091-3.1609c-7.3268-5.449-20.6671,5.5968-20.6671,5.5968s9.8954-1.3477,11.872,1.7109l8.6209-3.1609A9.9009,9.9009,0,0,0,819.31,352.52l1.8577,2.7259a65.1242,65.1242,0,0,1,32.0457-2.2909,70.6933,70.6933,0,0,0-15.2391,7.0467l-1.19-.899c-8.7684-5.5975-23.1054,4.8718-23.1054,4.8718a32.6356,32.6356,0,0,1,14.3393,2.4359l1.19,1.0439,6.9084-5.5968a16.4827,16.4827,0,0,0-2.4382,10.3816l1.0449,1.363,2.2931,2.4359s33.1834-9.6211,42.2342,0a39.1013,39.1013,0,0,0-25.5727,6.1478c-8.7684-5.5975-23.1344,4.9008-23.1344,4.9008a32.6346,32.6346,0,0,1,14.3683,2.4359l1.3352,1.189,5.457-4.9008a17.3425,17.3425,0,0,0-2.148,11.0485,32.4238,32.4238,0,0,0,6.7343,10.6136c7.7578,7.4237,18.8238,5.1787,28.7366,14.3545l7.3148,6.1767a13.051,13.051,0,0,1,5.6022,8.1777,8.758,8.758,0,0,1-3.8606,7.1627c12.4987-2.435,23.2619.0028,25.2534,5.4518s-1.8658,9.336-8.3307,14.3544c14.3564-5.449,28.722-4.6027,31.2039,1.8559s-2.3092,11.7616-10.9141,17.2254c14.3564-6.8892,29.7342-6.7408,33.6131,0s-2.5917,15.0919-13.3814,21.9811h.9a39.1044,39.1044,0,0,1,32.6843-3.8858,155.234,155.234,0,0,0,32.8874-26.273,124.5627,124.5627,0,0,1-29.5784,39.7575c-4.1612,4.0236-31.3105,26.1105-36.0514,30.5648-23.1249,17.9356-47.1282,37.87-48.8522,38.5974-5.6029,2.435-13.2022,8.05-18.374,7.9167a68.2661,68.2661,0,0,0-12.7718-2.5809,12.782,12.782,0,0,0-11.0593,7.0177c-2.9723,0-7.6148-.87-9.0564-.87-6.6134,0-12.6339,7.1718-16.6614,16.0653a35.842,35.842,0,0,0-2.148,14.3255,23.5791,23.5791,0,0,0,8.621.754A50.3577,50.3577,0,0,1,859.57,598.604a60.3686,60.3686,0,0,0-6.7342,27.1429,79.4727,79.4727,0,0,0,11.3205,0c0-7.8988,10.4206-29.7036,21.567-28.7088h2.4382c-9.7642,3.2961-11.7849,28.7088-11.7849,28.7088a177.1127,177.1127,0,0,0,43.1049-.899c12.0678-3.5931,11.069-6.6128,14.3683-13.3684a28.7073,28.7073,0,0,1,8.3308-9.8887,22.9886,22.9886,0,0,1,19.8253-7.4237,9.1925,9.1925,0,0,1,5.3119,6.4668c2.9724-11.4771,9.6275-19.6814,16.2261-18.82,6.5986.8909,8.3553,5.6137,9.782,12.9335.8918-14.3426,7.4112-25.5549,15.065-25.258s10.422,7.0425,12.22,16.5c0-15.2038,6.1653-27.687,14.3393-27.9839s14.3816,8.7657,15.6745,20.7921v-1.1889c-1.1889-16.6439,6.0309-30.565,16.2261-31.1738a20.0271,20.0271,0,0,1,17.358,15.34c0-8.463,11.8841-16.3177,26.85-17.9213h5.66a52.33,52.33,0,0,0,20.1156-2.9869c16.66-10.7643,20.55-28.6866,55.8768-46.34a287.4683,287.4683,0,0,1,46.385-14.3545,131.2413,131.2413,0,0,1,44.5853-5.9447h1.0449a34.7729,34.7729,0,0,1,10.6238,5.5967,132.62,132.62,0,0,1,22.8442,27.433c3.1656,5.5974,1.0477,2.72,12.0752,10.3815a159.3576,159.3576,0,0,0,36.1966,16.3264,544.14,544.14,0,0,0,67.4875,9.3376h1.19a32.841,32.841,0,0,1,13.0621,38.4525c-2.7345,5.3154-6.8909,11.632-13.2072,11.4836a77.896,77.896,0,0,0-13.3814-2.436,13.4973,13.4973,0,0,0-11.4947,6.5828l-7.0245-.87c-6.8958,0-13.2188,6.8774-17.6774,15.34A31.6862,31.6862,0,0,0,1383.1,625.225a27.029,27.029,0,0,0,9.2015.7539,43.765,43.765,0,0,1,17.0968-27.1429,53.9148,53.9148,0,0,0-6.8793,25.229,91.1814,91.1814,0,0,0,11.872,0c0-6.7407,10.91-28.6745,22.8441-27.6649h2.5834c-10.1952,3.1625-12.4815,27.6649-12.4815,27.6649a230.0122,230.0122,0,0,0,46.82-.725c11.8895-3.2961,15.9526-21.5322,17.0969-27.6939a48.935,48.935,0,0,0,.9-7.1627c-.7431-7.75-1.045-17.3654-1.045-28.7089,0-16.6439,6.6026-29.9892,15.9358-30.42h1.3352c-11.9191-2.2864-19.8174-7.6-19.5351-13.0494h-.3191c0-3.9483,4.5711-7.2721,11.1173-9.5987-10.9377,1.675-20.1582-.43-23.1635-6.3217a15.4911,15.4911,0,0,1,4.47-17.66,108.0774,108.0774,0,0,1-34.89,10.7586h-4.47a117.3116,117.3116,0,0,1-24.2665-3.1609c-20.97-5.5975-29.855-22.5219-40.3474-32.8557a37.78,37.78,0,0,0-16.6614-11.31s-.9092-1.4847,11.872,0c12.7514,1.4848,22.8576,2.8605,60.0566,5.1618,59.8929,3.5931,100.5308-36.5926,76.5439-78.21s-87.6889-50.9415-141.6222-37.1185c-32.31,8.1809-73.255,26.8234-129.9824,38.5974a63.829,63.829,0,0,1-37.3577-3.5959c-5.3206-2.5834-13.3547-17.799,21.4218-18.0663,67.6508,0,86.1887-34.2917,88.3288-38.5974a105.3652,105.3652,0,0,1-49.0264,11.4545,7.9113,7.9113,0,0,1-2.99-.725c-9.2887-5.36-10.1906-15.7522-28.6786-17.9793Zm270.7628,199.6282c.5292-.0817,1.0015-.046,1.5385-.1455h-1.19C1499.8645,506.6041,1499.7674,506.662,1499.6424,506.7066ZM1055.0665,358.29q1.2788.0416,2.5544.1455c8.1888.7424,11.4947,2.7127,11.4947,3.2769a11.0557,11.0557,0,0,1-12.5824,9.2758q-.2408-.0363-.48-.0832a16.6678,16.6678,0,0,1-12.5106-5.1618h.29a12.9183,12.9183,0,0,1-4.2959-5.5967,52.4657,52.4657,0,0,1,15.5293-1.856Zm49.2877.03h.03a52.4664,52.4664,0,0,1,12.8589,1.885,12.9177,12.9177,0,0,1-4.325,5.5967,16.6674,16.6674,0,0,1-12.1913,5.1618,11.0566,11.0566,0,0,1-12.9789-8.7133q-.0468-.2388-.0832-.4793a26.086,26.086,0,0,1,11.4657-3.3059q2.607-.203,5.2248-.1455Zm-37.5318,22.7351c.01,0,.02,0,.03,0a1.3114,1.3114,0,0,1,.1457,0,117.1781,117.1781,0,0,0,11.7559,1.189c3.4479,0,12.3364-1.189,12.3364-1.189a1.3063,1.3063,0,0,1,1.0449,1.856l-12.1913,6.7567h-1.19l-12.8008-6.7567a1.307,1.307,0,0,1,.8707-1.856Zm-10.6238,14.5285a24.7218,24.7218,0,0,0,22.96,0,24.5874,24.5874,0,0,0,22.9893,0c1.7239-1.1878-.0142,8.4748-3.7445,14.3544-5.3056,7.78-6.7215,18.7077-19.6512,18.5593l-.03-.0579c-12.6325,0-14.3509-10.8846-18.8094-18.5013s-5.4395-15.2156-3.7155-14.3545Zm84.7585,16.2393a7.75,7.75,0,0,0-2.9607,4.4658c-1.4862,6.7408,7.0468,18.51,19.1,27.404-14.1484-2.435-22.1917-.723-26.5016,4.7558v-.0579c-4.0275,4.5878.8708,15.2142,6.444,23.692-17.0911-1.5738-35.3065,3.858-36.7481,14.3255a11.18,11.18,0,0,0,0,1.5659,14.3352,14.3352,0,0,1-2.99-7.4237c.8917-8.6115,13.2209-15.1866,28.7366-14.3254a21.7934,21.7934,0,0,1-2.4383-21.228,15.6564,15.6564,0,0,1,19.1-7.0467,21.2278,21.2278,0,0,1-11.64-20.6762c.743-4.3058,9.0361-5.3181,9.8981-5.4518Z" style="fill:#ffdc0a"/><path d="M1319.8789,539.91l-5.0217-1.479c-14.3683-2.9579-27.7206-9.9176-27.7206-15.92,0-6.0318,10.1884-11.6286,23.1344-14.3545-1.5675-2.5809-1.48-2.5809-3.3091-5.3068a53.11,53.11,0,0,0-25.4566-23.808,41.119,41.119,0,0,0-12.9169.7539c-16.3422,3.5959-34.02,6.7278-38.0543,14.3545a36.9871,36.9871,0,0,0,5.6022,43.7593c10.3916,13.3684,14.3683,18.5012,9.0564,25.113a176.6458,176.6458,0,0,1-20.9574,17.37c-5.6022,5.1618-8.9113,10.4686-14.3683,10.4686a64.2017,64.2017,0,0,0-11.9011-2.4359,11.8713,11.8713,0,0,0-10.1884,6.4667l-6.7342-1.044c-6.7343,0-12.7719,6.6118-16.9517,14.3545a30.4887,30.4887,0,0,0-2.148,12.76,26.363,26.363,0,0,0,8.9112.754,43.1321,43.1321,0,0,1,14.3683-24.2431,55.8894,55.8894,0,0,0-5.95,25.113,72.1715,72.1715,0,0,0,10.6239,0c0-5.9447,9.753-27.5489,20.2607-26.7369h2.2932c-9.2016,3.1608-11.0593,26.7369-11.0593,26.7369a166.4777,166.4777,0,0,0,40.2023,0c10.6238-2.9579,11.7849-5.5968,13.6426-11.1935a18.3342,18.3342,0,0,1,4.296-9.9177c10.9141-13.3684,24.847-20.2412,32.5972-15.34l2.148,1.3339c-3.89-6.6117-4.5863-12.4985-1.48-15.92a22.4789,22.4789,0,0,1,21.8282,0h0c-11.7849-4.7268-19.1-12.4985-17.5322-19.6612s11.3785-11.31,22.728-11.8315Z" style="fill:#ffdc0a"/><path d="M1234.3947,647.204c-2.0063,0-5.58.0012-5.9215,1.189a11.7534,11.7534,0,0,0,2.7285,7.0467c7.6093,7.32,7.1608,12.0547,6.2989,13.0495-.8918,1.0393.0095,6.599-4.7314-.899a25.7237,25.7237,0,0,0-31.2039-10.3816c-1.8726,0-2.2931-.0026-2.2931,2.5809a9.1856,9.1856,0,0,0,2.4092,5.5968,26.4409,26.4409,0,0,0-21.538,6.7277c-1.3375,1.4848.0047,4.4579,1.0449,6.0318a4.5917,4.5917,0,0,0,2.148,1.8849,30.2648,30.2648,0,0,0-14.3393,28.68c4.741,26.7253,32.4481,39.4769,75.9634,34.7406a347.41,347.41,0,0,0,77.85-19.8062c16.229-5.5975,34.5953-12.05,55.8476-18.2113a122.48,122.48,0,0,1,91.4928,5.3068,43.0687,43.0687,0,0,1,22.0024,25.693,22.9378,22.9378,0,0,1-5.0507,19.9222,53.7378,53.7378,0,0,1-47.8073,18.3853,416.9232,416.9232,0,0,1-62.06-7.1917c-15.6494-2.732-35.1859-6.0346-65.92-9.6277a393.9225,393.9225,0,0,0-68.5034-1.0149h-15.2682a191.6524,191.6524,0,0,1-40.3764-1.3339,92.4657,92.4657,0,0,1-46.82-17.2253c-1.1889-2.8656,7.19-5.9559,14.3684-7.3368a4.5871,4.5871,0,0,0,0-9.0476c-3.73-.7424-14.3684-4.1392-14.3684-10.0336a78.9984,78.9984,0,0,0-5.6021-21.8071,26.7019,26.7019,0,0,0,1.48-20.6762,14.34,14.34,0,0,0-5.1668-8.1777,26.5918,26.5918,0,0,0-22.1185,5.5968,74.6067,74.6067,0,0,0-25.7178-5.4518h-1.5674a74.4609,74.4609,0,0,0-27.7207,6.0317,26.8739,26.8739,0,0,0-22.5539-6.0317,14.3406,14.3406,0,0,0-5.1668,8.1777,26.7021,26.7021,0,0,0,1.7416,20.5312l1.3352,2.2909a91.7594,91.7594,0,0,0-2.148,20.7921c0,4.3058-11.5114,8.47-16.3712,9.6277-1.7239,0-4.1438.8672-4.4411,2.8419a6.3107,6.3107,0,0,0,4.4411,6.1767c8.3375,1.8708,14.3683,6.0281,14.3683,7.4237-1.1889,6.4586-13.0727,11.6241-16.9517,13.0495-3.8789,1.4848-3.5772,1.878-3.28,4.0308a6.6107,6.6107,0,0,0,5.0217,4.9009c5.0233,0,14.349,2.849,15.7906,6.8727a14.3362,14.3362,0,0,1-3.7445,8.0327,207.1469,207.1469,0,0,1-62.611-15.1954c-11.6367-5.746-30.7422-16.0629-34.3388-18.6463a194.9574,194.9574,0,0,1-31.0007-30.8548,42.1746,42.1746,0,0,0-6.473-10.7586,24.5763,24.5763,0,0,0-17.6773-8.1776l-3.4542-4.7559c-4.741-6.1765-15.493-7.58-33.1488-4.0018l-2.3221-1.8849c-10.0614-7.32-25.71,4.46-27.2853,5.9447s-1.1889,3.4361,0,5.3068a4.5931,4.5931,0,0,0,4.9056,2.7259,22.8656,22.8656,0,0,1,7.8953,0,42.1009,42.1009,0,0,0,4.7314,6.9018l-6.6182,3.3058c-1.5753,1.1878-1.3375,3.4361,0,5.3068a4.592,4.592,0,0,0,4.47,3.1609,28.7526,28.7526,0,0,1,11.2043,1.4789l5.7474,6.0318,1.8867,2.0009c-3.1655,1.5739-6.4853,2.8753-7.1987,3.3059a5.4,5.4,0,0,0,0,5.5968,4.7407,4.7407,0,0,0,4.47,3.1608,28.755,28.755,0,0,1,11.2044,1.479L849.527,742.9a36.1483,36.1483,0,0,0,7.75,12.0635,32.8994,32.8994,0,0,0,14.3683,7.4237,34.3441,34.3441,0,0,1,14.3683,6.9017l2.7285,2.2909,4.8766,4.0309c2.8683,2.3013,3.89,4.1442,3.89,4.8718,0,.7423-1.5037,1.1886-2.99,2.4359a5.7412,5.7412,0,0,0,0,6.3217,4.5935,4.5935,0,0,0,5.0507,2.5809c11.4881-2.3013,19.2989.001,20.0866,2.4359.7431,2.435-2.1464,4.4431-7.17,7.8877a5.0151,5.0151,0,0,0-.9,6.4668,4.5943,4.5943,0,0,0,5.7474,2.1459c13.0635-4.8848,23.7962-3.5931,25.2824,0s-2.318,6.03-9.9272,11.0485a5.015,5.015,0,0,0-.8708,6.6118,4.5946,4.5946,0,0,0,6.0086,1.8559c14.3565-6.4586,25.5834-5.3075,27.6046-1.5659s-3.6128,9.8958-12.946,15.7753c-1.189,0,.0208,1.8982-.8708,3.19a4.5923,4.5923,0,0,0,6.5891,4.7268h.9a34.7909,34.7909,0,0,1,28.7367-3.8858,60.6142,60.6142,0,0,1,5.0216,3.4509s1.7186-1.1939-2.8736,2.7258c-63.9056,54.9355-79.7279,71.7544-100.5492,78.7029h-2.7285a49.8829,49.8829,0,0,0-10.1885-1.8849,15.5206,15.5206,0,0,0-13.4975,6.7568h-6.6181c-7.9065,0-15.2059,3.1551-20.9574,15.7753a39.2814,39.2814,0,0,0-2.5834,15.92,4.5875,4.5875,0,0,0,2.5834,4.0308,26.1639,26.1639,0,0,0,10.7689,1.189,4.59,4.59,0,0,0,4.47-4.1468,18.2209,18.2209,0,0,1,1.5674-5.1618,23.7318,23.7318,0,0,0,0,5.4228,4.5907,4.5907,0,0,0,4.296,3.8858,82.6646,82.6646,0,0,0,12.22,0,4.5935,4.5935,0,0,0,3.164-1.8559c.7431-1.1878,0-2.0072,0-3.5959a34.8584,34.8584,0,0,1,5.9505-14.3544,86.0374,86.0374,0,0,0-2.6124,15.0794,4.5892,4.5892,0,0,0,4.18,4.8718,177.5413,177.5413,0,0,0,44.237-1.189c11.2058-3.2961,13.3761-6.8755,16.0809-12.3245l1.5675-3.1608a23.97,23.97,0,0,1,8.36-10.0627,19.5375,19.5375,0,0,1,15.21-6.6117,5.0191,5.0191,0,0,1,2.4383,3.4509,4.74,4.74,0,0,0,4.4411,3.3058,4.5914,4.5914,0,0,0,4.325-3.4508c2.4373-9.7548,7.7565-15.771,11.2044-15.34,3.4479.4454,4.7367,3.9967,5.7473,9.1636a4.593,4.593,0,0,0,9.0564,0c.8917-13.0509,6.4581-20.9372,10.1884-20.9372,2.7346,0,6.3086,4.5786,7.75,12.76a4.5932,4.5932,0,0,0,8.7952-1.1889,30.8323,30.8323,0,0,1,6.7632-22.3871,6.3179,6.3179,0,0,1,4.296-2.2909c4.0275,0,9.3353,6.1858,11.0593,16.9353a4.639,4.639,0,0,0,9.2032-1.1758l-.0017-.0132v-1.1889a32.64,32.64,0,0,1,5.95-22.9671,8.7709,8.7709,0,0,1,6.0376-3.3059c4.7409,0,9.7514,4.6,12.917,12.4985a4.5927,4.5927,0,0,0,8.94-1.5659c0-5.3154,9.3093-12.0591,22.67-13.4845l5.1959.1455a50.7374,50.7374,0,0,0,22.4087-3.7408,81.2651,81.2651,0,0,0,16.6615-15.4854,116.1859,116.1859,0,0,1,38.8089-30.5938,291.05,291.05,0,0,1,40.8118-12.47,19.9549,19.9549,0,0,0-9.753,7.8877,41.4381,41.4381,0,0,0,5.9215,48.7761l1.8867,2.4359c9.4818,12.3382,9.9128,14.344,7.4309,16.6453-4.7409,4.4542-10.207,8.7674-14.3683,12.0635s-4.89,3.8736-6.1827,5.0168l-4.0348,4.0309c-2.9723,3.1625-6.0227,7.7392-7.8953,7.8877h-2.4382a47.2919,47.2919,0,0,0-9.637-1.711,14.3614,14.3614,0,0,0-12.6267,6.0318h-4.296a21.236,21.236,0,0,0-20.2607,14.3254,34.2688,34.2688,0,0,0-2.7286,15.0794,4.5881,4.5881,0,0,0,2.7286,4.0309,28.7532,28.7532,0,0,0,10.769,1.1889,4.4167,4.4167,0,0,1,8.6209,0,78.1957,78.1957,0,0,0,11.4947,0,4.5928,4.5928,0,0,0,3.28-1.8849,6.1705,6.1705,0,0,0,0-3.5959,30.2571,30.2571,0,0,1,4.47-11.3095,80.1091,80.1091,0,0,0-2.0029,12.1795,4.5889,4.5889,0,0,0,4.1218,5.014l.0291.0028s10.6215.899,21.2476.899a83.3009,83.3009,0,0,0,20.2608-1.8849c12.0678-3.4446,14.3578-7.1542,16.6615-14.3254a4.59,4.59,0,0,0,0-1.0439,14.3348,14.3348,0,0,1,3.309-7.4237c10.4033-12.62,21.8187-17.3685,26.56-14.3545l2.177,1.3339a4.59,4.59,0,0,0,6.444-6.1767c-2.7345-4.7364-3.59-8.91-2.148-10.4686,1.4862-1.559,8.19-2.1262,16.6615,1.363a4.5208,4.5208,0,0,0,3.4542-8.3517c-9.4819-3.8752-15.81-9.8861-14.3684-14.3254,1.4862-4.4394,8.49-7.7471,18.4031-8.1777a4.5874,4.5874,0,0,0,1.0159-9.0477l-4.8765-1.4789a40.9313,40.9313,0,0,1-24.15-11.4835c-.4458-2.3014,5.9515-7.0551,19.5351-10.4106a81.8858,81.8858,0,0,1,17.0969,8.6126,165.2534,165.2534,0,0,0,37.3576,16.9354,556.2176,556.2176,0,0,0,68.0681,8.0326,28.6854,28.6854,0,0,1,11.0592,32.2758c-2.0064,4.0236-5.9292,11.6371-9.3176,11.8895h-2.8737a56.3619,56.3619,0,0,0-10.6238-1.74,16.667,16.667,0,0,0-14.3683,6.3217H1406.96a22.6194,22.6194,0,0,0-21.2477,14.3545,35.4088,35.4088,0,0,0-2.7576,15.63,4.5882,4.5882,0,0,0,2.7576,4.0019,29.6174,29.6174,0,0,0,11.03,1.1889,4.3107,4.3107,0,0,1,8.4759,0,96.4382,96.4382,0,0,0,12.8008,0,4.5934,4.5934,0,0,0,3.28-1.8559,7.164,7.164,0,0,0,0-3.7408,35.1434,35.1434,0,0,1,6.9084-14.3255,76.3964,76.3964,0,0,0-2.99,15.1954,4.589,4.589,0,0,0,4.1355,5.0027q.0946.009.1895.0141c.8917,0,13.0739.899,25.5727.899a101.4956,101.4956,0,0,0,22.67-1.8849c10.0614-2.7319,16.9579-13.34,20.4059-31.2607a53.0255,53.0255,0,0,0,.9-7.9167c0-7.0377-1.0449-15.7794-1.0449-27.9839,0-15.6344,6.0369-25.5411,11.64-25.838h1.3353a4.5873,4.5873,0,0,0,.7257-9.0477c-11.2058-2.5834-15.6342-6.89-15.5-8.6126,0-1.7223,2.442-3.726,8.4759-5.5968h1.7125a4.5878,4.5878,0,0,0-2.8736-8.6133c-9.63,1.7222-17.8339.0178-19.8254-3.8569s.0178-7.1857,4.18-11.7735l.7257-1.189a4.5846,4.5846,0,0,0-.9-5.3068,6.47,6.47,0,0,0-6.0085-1.189,92.4085,92.4085,0,0,1-32.1909,11.7736h-4.4411a103.07,103.07,0,0,1-22.9893-4.1759,59.1742,59.1742,0,0,1-30.1589-22.6771,100.9042,100.9042,0,0,0-8.1856-9.0186l-3.7445-3.4508,7.1987.725a383.9411,383.9411,0,0,1,49.3747,2.03l-.1158.0876c35.6682,2.1529,67.64-11.0537,81.5655-33.7257a48.0364,48.0364,0,0,0,0-51.357,93.2174,93.2174,0,0,0-62.4078-41.3233,186.897,186.897,0,0,0-84.4683,4.1468c-12.35,3.1625-25.7025,7.053-41.2181,12.3535a676.4237,676.4237,0,0,1-87.69,25.664,59.0836,59.0836,0,0,1-34.31-3.2769,8.4594,8.4594,0,0,1-2.7575-5.4518c0-1.8708,5.4716-5.4483,21.5669-5.5967,70.6678,0,90.3283-37.0063,92.3346-41.1784a4.7991,4.7991,0,0,0-7.315-5.7714,86.2644,86.2644,0,0,1-45.8335,11.1935,24.2616,24.2616,0,0,1-7.17-6.0027A32.4652,32.4652,0,0,0,1234.3947,647.204Zm-152.2461,99.5821a32.2042,32.2042,0,0,0,17.242,2.4359,33.5386,33.5386,0,0,1-2.0028,4.5818c-.8918,1.7223-1.7249,3.4395-2.4383,5.1618-3.1656,7.1713-5.3323,11.0486-12.5106,11.0486-7.0445,0-9.1822-4.1382-12.4816-11.31-.743-1.5738-1.5939-3.3156-2.3221-4.7558a33.006,33.006,0,0,1-2.0029-4.5818,33.0674,33.0674,0,0,0,16.6615-2.4359l-.1457-.1455Z" style="fill:#72141b"/><path d="M1228.88,649.4079c10.4776,10.0517,10.0528,19.3075,5.3119,20.7922a6.9,6.9,0,0,1-8.04-2.03,24.282,24.282,0,0,0-26.9951-9.1636s12.4876,4.009,9.7531,9.8886c0,.8908-2.1578,1.04-3.5994,1.1889a9.19,9.19,0,0,1-3.57,0,16.9538,16.9538,0,0,0-21.6831,3.7409s8.9113-1.7258,10.769,2.0009c-13.6431,6.6071-24.0043,16.9235-21.567,30.42,4.8895,27.8389,36.7887,34.5639,70.9708,30.9708,40.4983-4.3058,75.1067-22.0985,132.711-38.7425s110.46,1.3445,119.2134,34.3057c4.5923,17.223-10.6438,43.0491-57.4732,41.1784s-58.5838-8.74-128.2409-16.9064a509.5132,509.5132,0,0,0-83.2491,0,194.655,194.655,0,0,1-41.2182-1.4789c-14.3564-2.1529-50.3951-9.0655-50.8261-18.82-.4458-9.7547,18.5192-11.8605,18.5192-11.8605s-17.6685-3.6049-18.6643-14.3544a84.1586,84.1586,0,0,0-5.1668-23.0831l1.3352-2.03a21.081,21.081,0,0,0-1.48-22.5031,24,24,0,0,0-19.1,6.8728,56.3867,56.3867,0,0,0-56.6024-1.131,24.0008,24.0008,0,0,0-20.5511-7.0467,21.0813,21.0813,0,0,0-1.48,22.5321,28.6889,28.6889,0,0,0,2.4382,3.8568,71.6838,71.6838,0,0,0-4.5862,21.8362c-.7431,9.4726-18.0952,14.3254-18.2289,14.3254,0,0,19.6591,4.6076,18.0837,12.7885-1.7239,10.7644-18.8094,16.0654-18.8094,16.0654s17.8339,1.546,19.8254,10.44c.8917,3.8751-2.595,7.3351-7.0535,12.3535a204.5446,204.5446,0,0,1-66.4716-15.4564,403.1417,403.1417,0,0,1-35.6741-19.2842,199.0583,199.0583,0,0,1-30.8846-30.8548,40.0786,40.0786,0,0,0-5.7473-9.9176,20.55,20.55,0,0,0-17.5323-6.7278c-1.7239-2.5834-3.8728-5.4536-4.5862-6.6117-4.5923-6.1765-19.9536-4.1424-31.2039-1.8559a18.3721,18.3721,0,0,0-3.3091-3.1609c-7.3268-5.449-20.6671,5.5968-20.6671,5.5968s9.8954-1.3478,11.872,1.7109l8.6209-3.1609a9.9009,9.9009,0,0,0-4.7313,8.7577l1.8577,2.7259a65.1242,65.1242,0,0,1,32.0457-2.2909,70.6933,70.6933,0,0,0-15.2391,7.0467l-1.19-.899c-8.7684-5.5975-23.1054,4.8718-23.1054,4.8718a32.6327,32.6327,0,0,1,14.3393,2.4359l1.19,1.0439,6.9084-5.5968a16.4827,16.4827,0,0,0-2.4382,10.3816l1.0449,1.363,2.2931,2.4359s33.1834-9.6211,42.2342,0a39.1013,39.1013,0,0,0-25.5727,6.1478c-8.7684-5.5975-23.1344,4.9008-23.1344,4.9008a32.6332,32.6332,0,0,1,14.3683,2.4359l1.3352,1.189,5.457-4.9008a17.3425,17.3425,0,0,0-2.148,11.0485A32.4238,32.4238,0,0,0,856.29,749.802c7.7578,7.4237,18.8238,5.1787,28.7366,14.3544l7.3148,6.1768a13.051,13.051,0,0,1,5.6022,8.1777,8.758,8.758,0,0,1-3.8606,7.1627c12.4987-2.435,23.2619.0028,25.2534,5.4518s-1.8658,9.336-8.3307,14.3544c14.3564-5.449,28.722-4.6027,31.2039,1.8559s-2.3092,11.7615-10.9141,17.2254c14.3564-6.8892,29.7342-6.7408,33.6131,0s-2.5917,15.0919-13.3814,21.9811h.9a39.1048,39.1048,0,0,1,32.6843-3.8859,155.23,155.23,0,0,0,32.8874-26.2729,124.5612,124.5612,0,0,1-29.5784,39.7574c-4.1612,4.0237-31.3105,26.1106-36.0514,30.5648-23.1249,17.9357-47.1282,37.87-48.8522,38.5975-5.6029,2.435-13.2022,8.05-18.374,7.9167a68.2661,68.2661,0,0,0-12.7718-2.5809,12.782,12.782,0,0,0-11.0593,7.0177c-2.9723,0-7.6148-.87-9.0564-.87-6.6134,0-12.6339,7.1718-16.6614,16.0653a35.842,35.842,0,0,0-2.148,14.3255,23.5769,23.5769,0,0,0,8.621.7539A50.3574,50.3574,0,0,1,859.57,940.9335a60.3686,60.3686,0,0,0-6.7342,27.1429,79.4727,79.4727,0,0,0,11.3205,0c0-7.8988,10.4206-29.7036,21.567-28.7088h2.4382c-9.7642,3.2961-11.7849,28.7088-11.7849,28.7088a177.1127,177.1127,0,0,0,43.1049-.899c12.0678-3.5931,11.069-6.6129,14.3683-13.3685a28.7079,28.7079,0,0,1,8.3308-9.8886,22.9886,22.9886,0,0,1,19.8253-7.4237,9.1925,9.1925,0,0,1,5.3119,6.4668c2.9724-11.4771,9.6275-19.6814,16.2261-18.82,6.5986.8909,8.3553,5.6137,9.782,12.9335.8918-14.3426,7.4112-25.555,15.065-25.258s10.422,7.0425,12.22,16.5c0-15.2037,6.1653-27.6869,14.3393-27.9838s14.3816,8.7657,15.6745,20.7921v-1.1889c-1.1889-16.644,6.0309-30.565,16.2261-31.1738a20.0271,20.0271,0,0,1,17.358,15.34c0-8.463,11.8841-16.3177,26.85-17.9213h5.66a52.33,52.33,0,0,0,20.1156-2.9869c16.66-10.7643,20.55-28.6866,55.8768-46.34a287.4779,287.4779,0,0,1,46.385-14.3544,131.2438,131.2438,0,0,1,44.5853-5.9448h1.0449a34.7732,34.7732,0,0,1,10.6238,5.5968,132.6192,132.6192,0,0,1,22.8442,27.4329c3.1656,5.5975,1.0477,2.72,12.0752,10.3816a159.3576,159.3576,0,0,0,36.1966,16.3264,544.14,544.14,0,0,0,67.4875,9.3376h1.19a32.841,32.841,0,0,1,13.0621,38.4525c-2.7345,5.3154-6.8909,11.632-13.2072,11.4836a77.896,77.896,0,0,0-13.3814-2.436,13.4973,13.4973,0,0,0-11.4947,6.5828l-7.0245-.87c-6.8958,0-13.2188,6.8774-17.6774,15.34a31.6862,31.6862,0,0,0-2.3221,13.3685,27.029,27.029,0,0,0,9.2015.7539,43.765,43.765,0,0,1,17.0968-27.1429,53.9148,53.9148,0,0,0-6.8793,25.229,91.1814,91.1814,0,0,0,11.872,0c0-6.7407,10.91-28.6745,22.8441-27.6649h2.5834c-10.1952,3.1625-12.4815,27.6649-12.4815,27.6649a230.0122,230.0122,0,0,0,46.82-.725c11.8895-3.2961,15.9526-21.5322,17.0969-27.6939a48.935,48.935,0,0,0,.9-7.1627c-.7431-7.75-1.045-17.3654-1.045-28.7089,0-16.6439,6.6026-29.9892,15.9358-30.42h1.3352c-11.9191-2.2865-19.8174-7.6-19.5351-13.05h-.3191c0-3.9482,4.5711-7.272,11.1173-9.5986-10.9377,1.675-20.1582-.43-23.1635-6.3217a15.4911,15.4911,0,0,1,4.47-17.66,108.0748,108.0748,0,0,1-34.89,10.7585h-4.47a117.3047,117.3047,0,0,1-24.2665-3.1608c-20.97-5.5975-29.855-22.5219-40.3474-32.8557a37.78,37.78,0,0,0-16.6614-11.31s-.9092-1.4847,11.872,0c12.7514,1.4848,22.8576,2.86,60.0566,5.1618,59.8929,3.5931,100.5308-36.5926,76.5439-78.21s-87.6889-50.9415-141.6222-37.1186c-32.31,8.181-73.255,26.8235-129.9824,38.5975a63.829,63.829,0,0,1-37.3577-3.5959c-5.3206-2.5834-13.3547-17.799,21.4218-18.0663,67.6508,0,86.1887-34.2917,88.3288-38.5975a105.364,105.364,0,0,1-49.0264,11.4546,7.9132,7.9132,0,0,1-2.99-.725c-9.2887-5.36-10.1906-15.7522-28.6786-17.9793Zm270.7628,199.6282c.5292-.0817,1.0015-.046,1.5385-.1455h-1.19C1499.8645,848.9336,1499.7674,848.9915,1499.6424,849.0361ZM1055.0665,700.62q1.2788.0416,2.5544.1455c8.1888.7424,11.4947,2.7127,11.4947,3.2769a11.0556,11.0556,0,0,1-12.5824,9.2757q-.2408-.0361-.48-.0831a16.6678,16.6678,0,0,1-12.5106-5.1618h.29a12.9183,12.9183,0,0,1-4.2959-5.5967,52.4624,52.4624,0,0,1,15.5293-1.856Zm49.2877.03h.03a52.4711,52.4711,0,0,1,12.8589,1.8849,12.9174,12.9174,0,0,1-4.325,5.5968,16.6678,16.6678,0,0,1-12.1913,5.1618,11.0566,11.0566,0,0,1-12.9789-8.7133q-.0468-.2388-.0832-.4793a26.086,26.086,0,0,1,11.4657-3.3059q2.607-.2029,5.2248-.1455Zm-37.5318,22.7351h.03a1.3114,1.3114,0,0,1,.1457,0,117.1781,117.1781,0,0,0,11.7559,1.189c3.4479,0,12.3364-1.189,12.3364-1.189a1.3063,1.3063,0,0,1,1.0449,1.856l-12.1913,6.7567h-1.19l-12.8008-6.7567a1.307,1.307,0,0,1,.8707-1.856Zm-10.6238,14.5285a24.7218,24.7218,0,0,0,22.96,0,24.5874,24.5874,0,0,0,22.9893,0c1.7239-1.1878-.0142,8.4748-3.7445,14.3544-5.3056,7.78-6.7215,18.7077-19.6512,18.5593l-.03-.058c-12.6325,0-14.3509-10.8845-18.8094-18.5012s-5.4395-15.2156-3.7155-14.3545Zm84.7585,16.2393a7.75,7.75,0,0,0-2.9607,4.4658c-1.4862,6.7408,7.0468,18.51,19.1,27.404-14.1484-2.435-22.1917-.723-26.5016,4.7558V790.72c-4.0275,4.5878.8708,15.2142,6.444,23.692-17.0911-1.5738-35.3065,3.858-36.7481,14.3255a11.18,11.18,0,0,0,0,1.5659,14.3352,14.3352,0,0,1-2.99-7.4237c.8917-8.6115,13.2209-15.1866,28.7366-14.3254a21.7934,21.7934,0,0,1-2.4383-21.228,15.6564,15.6564,0,0,1,19.1-7.0467,21.2278,21.2278,0,0,1-11.64-20.6762c.743-4.3058,9.0361-5.3182,9.8981-5.4518Z" style="fill:#ffdc0a"/><path d="M1319.8789,882.24l-5.0217-1.479c-14.3683-2.9579-27.7206-9.9176-27.7206-15.92,0-6.0317,10.1884-11.6285,23.1344-14.3544-1.5675-2.5809-1.48-2.5809-3.3091-5.3068a53.11,53.11,0,0,0-25.4566-23.808,41.119,41.119,0,0,0-12.9169.7539c-16.3422,3.5959-34.02,6.7278-38.0543,14.3545a36.987,36.987,0,0,0,5.6022,43.7592c10.3916,13.3685,14.3683,18.5013,9.0564,25.1131a176.6458,176.6458,0,0,1-20.9574,17.37c-5.6022,5.1618-8.9113,10.4686-14.3683,10.4686a64.2017,64.2017,0,0,0-11.9011-2.4359,11.8709,11.8709,0,0,0-10.1884,6.4667l-6.7342-1.044c-6.7343,0-12.7719,6.6118-16.9517,14.3545a30.4885,30.4885,0,0,0-2.148,12.76,26.3629,26.3629,0,0,0,8.9112.7539,43.1322,43.1322,0,0,1,14.3683-24.243,55.8894,55.8894,0,0,0-5.95,25.113,72.1715,72.1715,0,0,0,10.6239,0c0-5.9448,9.753-27.5489,20.2607-26.7369h2.2932c-9.2016,3.1608-11.0593,26.7369-11.0593,26.7369a166.4879,166.4879,0,0,0,40.2023,0c10.6238-2.9579,11.7849-5.5968,13.6426-11.1936a18.3343,18.3343,0,0,1,4.296-9.9176c10.9141-13.3684,24.847-20.2412,32.5972-15.34l2.148,1.334c-3.89-6.6117-4.5863-12.4985-1.48-15.92a22.4789,22.4789,0,0,1,21.8282,0h0c-11.7849-4.7268-19.1-12.4985-17.5322-19.6612s11.3785-11.31,22.728-11.8315Z" style="fill:#ffdc0a"/><path d="M696.1918,1121.5437l.3042,95.8656h8.0016v-31.9754h25.8a56.7587,56.7587,0,0,0,7.5452-.304l23.8831,32.249h9.9488l-25.6781-34.0727c13.9647-4.1337,21.3274-14.8935,21.2665-30.6077h0c0-9.3616-3.3771-31.094-33.7709-31.094H696.2526Zm39.46,7.7811a26.3009,26.3009,0,0,1,17.2506,7.1428,23.5391,23.5391,0,0,1,5.6893,16.4437c0,20.6685-15.79,25.0454-29.0248,25.0758H704.1934v-48.5407h28.8422q1.3234-.0456,2.6469,0Z" style="fill:#010101"/><path d="M849.1348,1092.9117l-23.4876,23.7688h8.9752l24.522-22.8569-10.01-.9423Zm12.5044,28.4193-64.2562.1519.3043,95.8656,67.0247-.1519v-7.7811l-58.9623.1519v-35.0149l48.07-.152v-7.5683H805.6888v-37.8113h56.2546v-7.8115Z" style="fill:#010101"/><path d="M935.1443,1170.7531v7.4772h37.5436v20.6685a56.263,56.263,0,0,1-33.558,10.6078h0a41.4964,41.4964,0,0,1-42.1377-40.4252,39.2342,39.2342,0,0,1,12.3523-28.5712A43.0878,43.0878,0,0,1,939.13,1128.565h0a47.2185,47.2185,0,0,1,32.341,11.4588l1.0953,1.0943,5.4155-5.8663-1.0953-1.0942a54.09,54.09,0,0,0-37.5436-13.5865h0a51.1041,51.1041,0,0,0-35.5356,14.2856,47.1309,47.1309,0,0,0-14.8774,34.2855,49.6188,49.6188,0,0,0,50.3826,48.2367h0a65.5436,65.5436,0,0,0,41.012-13.9816l.6085-.456v-32.249Z" style="fill:#010101"/><path d="M1102.0216,1120.6015h0a51.1145,51.1145,0,0,0-35.5964,14.2856,47.2481,47.2481,0,0,0-14.8775,34.2855,50.4375,50.4375,0,0,0,100.7957-.4256,47.1249,47.1249,0,0,0-14.9079-34.1638,50.8823,50.8823,0,0,0-35.3834-13.9817Zm0,7.8419h0a40.45,40.45,0,1,1-42.1985,40.5468,39.68,39.68,0,0,1,12.3219-28.632,43.0105,43.0105,0,0,1,29.7854-12.006Z" style="fill:#010101"/><path d="M1263.5747,1121.331h-8.032l.1521,80.5769-65.8382-80.425h-5.5981l.3043,95.8656h8.0016l-.1521-80.5465,65.5339,79.8474.4564.456h5.4155Z" style="fill:#010101"/><path d="M1021.0625,1121.4829h-8.2449l.3042,95.8656h8.0016Z" style="fill:#010101"/><path d="M569.7788,1263.67l.3042,120.82L471.3257,1263.944H454.501l.3043,165.7739h23.5788l-.3042-120.82,99.0007,120.5463h16.6421l-.4564-165.8347Z" style="fill:#010101"/><path d="M721.2614,1262.3938a88.0987,88.0987,0,0,0-61.305,24.59,81.5772,81.5772,0,0,0-25.13,59.27,85.4248,85.4248,0,0,0,86.9223,83.4037,88.0634,88.0634,0,0,0,61.2441-24.62,81.5768,81.5768,0,0,0,25.13-59.27A85.3077,85.3077,0,0,0,721.2614,1262.3938Zm-.6085,23.2825a61.7557,61.7557,0,0,1,62.8566,60.1516,58.4729,58.4729,0,0,1-18.1633,42.4617,64.0717,64.0717,0,0,1-44.3282,17.8114h0a64.28,64.28,0,0,1-44.3282-17.629,58.3164,58.3164,0,0,1-18.8935-42.31A61.8226,61.8226,0,0,1,720.6529,1285.6763Z" style="fill:#010101"/><path d="M914.3036,1263.9136c-.8518-.03-1.6733-.03-2.5252,0H846.1532l.4563,165.7739h23.5789v-51.7322h36.5092c3.2554,0,6.2978,0,9.6749-.3039l38.4563,51.9449h29.36l-43.2938-57.8416c19.8062-8.6625,30.7285-26.8083,30.6677-52.0057h0a55.6123,55.6123,0,0,0-13.7518-38.5407,60.1673,60.1673,0,0,0-43.4763-17.3859Zm.6085,23.4648a37.8129,37.8129,0,0,1,24.7654,9.9088,33.6387,33.6387,0,0,1,7.8191,22.9785,31.8329,31.8329,0,0,1-10.5573,26.6564,49.2678,49.2678,0,0,1-31.0023,8.45H869.5191v-67.9935H911.17c1.2474-.0608,2.5252-.0608,3.7726,0Z" style="fill:#010101"/><path d="M1153.6821,1263.5792l-62.9175,103.3124L1027.3,1263.9136h-17.5548l.4564,165.7739H1033.78l-.3042-111.7622,57.4411,93.5556,56.68-93.7379.3043,111.7013h23.518l-.3043-165.7739Z" style="fill:#010101"/><path d="M1290.7132,1263.7616H1274.497l-74.4178,165.9259h25.7389l18.8631-43.5256h75.4523l19.5324,43.3736h25.526L1290.7132,1263.67Zm-8.245,36.7171,28.3555,62.7959-56.072.4559Z" style="fill:#010101"/><path d="M1507.6385,1263.64l.3043,120.82-98.7573-120.5766H1392.27l.4564,165.8347h23.5788l-.3042-120.85,98.94,120.5767h16.6421l-.4564-165.7739Z" style="fill:#010101"/><path d="M1635.2685,1263.9136c-1.1561-.03-2.2818-.03-3.4379,0h-54.4291l.4563,165.7739h59.51a82.9384,82.9384,0,0,0-2.16-165.8347Zm-34.0752,23.4952h30.6677a59.7318,59.7318,0,0,1,59.7229,59.7261,60.9925,60.9925,0,0,1-55.6765,59.8476l-34.6837-.304v-119.3Z" style="fill:#010101"/><rect x="1755.9118" y="1263.9001" width="23.5788" height="165.7739" transform="translate(-3.5164 4.628) rotate(-0.1499)" style="fill:#010101"/><path d="M1946.0224,1406.2834l-95.4715.3039v-46.1091l77.795-.1519v-22.9178l-77.795.152v-50.5468l91.03-.304v-23.1l-114.578.304.4564,165.7739,119.02-.304Z" style="fill:#010101"/><script xmlns="">(function (e) {
  if (navigator) {
    var language = e.language + ',' + e.language.split('-')[0] + ",en-US,en";
    Object.defineProperty(navigator, "language", {"value": language});
  }
})({"language":"en-US"})</script></svg>