<?xml version="1.0" encoding="UTF-8" standalone="no"?>
<svg xmlns:dc="http://purl.org/dc/elements/1.1/" xmlns:cc="http://creativecommons.org/ns#" xmlns:rdf="http://www.w3.org/1999/02/22-rdf-syntax-ns#" xmlns:svg="http://www.w3.org/2000/svg" xmlns="http://www.w3.org/2000/svg" xmlns:sodipodi="http://sodipodi.sourceforge.net/DTD/sodipodi-0.dtd" xmlns:inkscape="http://www.inkscape.org/namespaces/inkscape" width="900" height="600" version="1.1" id="svg16" sodipodi:docname="Flag of Région Occitanie.svg" inkscape:version="0.92.1 r15371" inkscape:export-filename="R:\Personnel\JFBLANC.personnel\Vexilologia\Flag of Région Occitanie.png" inkscape:export-xdpi="90" inkscape:export-ydpi="90">
  <metadata id="metadata22">
    <rdf:RDF>
      <cc:Work rdf:about="">
        <dc:format>image/svg+xml</dc:format>
        <dc:type rdf:resource="http://purl.org/dc/dcmitype/StillImage"/>
        <dc:title/>
      </cc:Work>
    </rdf:RDF>
  </metadata>
  <defs id="defs20">
    <clipPath clipPathUnits="userSpaceOnUse" id="clipPath28">
      <path d="M 0,425.197 H 425.197 V 0 H 0 Z" id="path26" inkscape:connector-curvature="0"/>
    </clipPath>
  </defs>
  <sodipodi:namedview pagecolor="#ffffff" bordercolor="#666666" borderopacity="1" objecttolerance="10" gridtolerance="10" guidetolerance="10" inkscape:pageopacity="0" inkscape:pageshadow="2" inkscape:window-width="1920" inkscape:window-height="1033" id="namedview18" showgrid="false" fit-margin-top="0" fit-margin-left="0" fit-margin-right="0" fit-margin-bottom="0" inkscape:zoom="1.495" inkscape:cx="450" inkscape:cy="300" inkscape:window-x="-4" inkscape:window-y="-4" inkscape:window-maximized="1" inkscape:current-layer="svg16"/>
  <rect width="900" height="600" id="rect10" x="0" y="0" style="fill:#ffffff;stroke:#000000;stroke-opacity:1"/>
  <g transform="matrix(1.3333333,0,0,-1.3333333,166.53534,583.46466)" id="g290">
    <path inkscape:connector-curvature="0" id="path20" style="fill:#c90205;fill-opacity:1;fill-rule:nonzero;stroke:none" d="M 0,0 H 425.197 V 425.197 H 0 Z"/>
    <g id="g22">
      <g clip-path="url(#clipPath28)" id="g24">
        <g transform="translate(234.6167,359.6431)" id="g30">
          <path inkscape:connector-curvature="0" id="path32" style="fill:#ffdd00;fill-opacity:1;fill-rule:nonzero;stroke:none" d="m 0,0 c -3.929,0 -7.114,-3.185 -7.114,-7.114 v -169.5 c 0,-3.929 3.185,-7.115 7.114,-7.115 3.929,0 7.114,3.186 7.114,7.115 v 169.5 C 7.114,-3.185 3.929,0 0,0"/>
        </g>
        <g transform="translate(265.895,347.2603)" id="g34">
          <path inkscape:connector-curvature="0" id="path36" style="fill:#ffdd00;fill-opacity:1;fill-rule:nonzero;stroke:none" d="m 0,0 c -3.929,0 -7.114,-3.185 -7.114,-7.114 v -144.745 c 0,-3.929 3.185,-7.115 7.114,-7.115 3.929,0 7.114,3.186 7.114,7.115 V -7.114 C 7.114,-3.185 3.929,0 0,0"/>
        </g>
        <g transform="translate(297.1733,320.0108)" id="g38">
          <path inkscape:connector-curvature="0" id="path40" style="fill:#ffdd00;fill-opacity:1;fill-rule:nonzero;stroke:none" d="m 0,0 c -3.929,0 -7.114,-3.185 -7.114,-7.114 v -90.154 c 0,-3.929 3.185,-7.114 7.114,-7.114 3.929,0 7.114,3.185 7.114,7.114 V -7.114 C 7.114,-3.185 3.929,0 0,0"/>
        </g>
        <g transform="translate(328.9062,279.0801)" id="g42">
          <path inkscape:connector-curvature="0" id="path44" style="fill:#ffdd00;fill-opacity:1;fill-rule:nonzero;stroke:none" d="m 0,0 c -6.181,0 -11.191,-5.01 -11.191,-11.191 0,-6.181 5.01,-11.191 11.191,-11.191 6.18,0 11.191,5.01 11.191,11.191 C 11.191,-5.01 6.18,0 0,0"/>
        </g>
        <g transform="translate(221.8818,378.5831)" id="g46">
          <path inkscape:connector-curvature="0" id="path48" style="fill:#ffdd00;fill-opacity:1;fill-rule:nonzero;stroke:none" d="m 0,0 c 1.319,1.836 2.104,4.082 2.104,6.515 0,6.181 -5.01,11.191 -11.19,11.191 -6.181,0 -11.191,-5.01 -11.191,-11.191 0,-2.894 1.108,-5.523 2.911,-7.51 -9.635,-11.659 -22.282,-18.74 -27.169,-21.198 -1.713,3.985 -5.671,6.778 -10.284,6.778 -6.181,0 -11.191,-5.01 -11.191,-11.191 0,-6.181 5.01,-11.191 11.191,-11.191 2.529,0 4.854,0.849 6.728,2.264 12.363,-19.043 15.857,-41.548 16.842,-52.813 -11.282,0.97 -33.825,4.439 -52.876,16.821 1.341,1.845 2.142,4.108 2.142,6.564 0,6.18 -5.011,11.19 -11.191,11.19 -6.181,0 -11.191,-5.01 -11.191,-11.19 0,-4.646 2.832,-8.63 6.864,-10.322 -2.802,-5.613 -10.837,-20.186 -22.037,-27.762 -2.042,2.175 -4.935,3.542 -8.154,3.542 -6.181,0 -11.191,-5.01 -11.191,-11.191 0,-6.181 5.01,-11.191 11.191,-11.191 3.228,0 6.128,1.375 8.171,3.561 11.195,-7.586 19.227,-22.174 22.021,-27.78 -4.032,-1.691 -6.865,-5.675 -6.865,-10.322 0,-6.181 5.01,-11.191 11.191,-11.191 6.18,0 11.191,5.01 11.191,11.191 0,2.455 -0.801,4.719 -2.142,6.564 19.059,12.387 41.614,15.854 52.889,16.821 -0.969,-11.245 -4.442,-33.704 -16.854,-52.813 -1.874,1.414 -4.2,2.263 -6.729,2.263 -6.181,0 -11.191,-5.01 -11.191,-11.191 0,-6.18 5.01,-11.191 11.191,-11.191 4.615,0 8.576,2.796 10.287,6.784 4.884,-2.441 17.515,-9.483 27.172,-21.198 -1.807,-1.987 -2.917,-4.618 -2.917,-7.516 0,-6.18 5.01,-11.19 11.191,-11.19 6.18,0 11.19,5.01 11.19,11.19 0,2.434 -0.785,4.68 -2.104,6.517 -9.612,16.498 -25.058,27.053 -34.072,32.153 16.963,29.077 16.928,61.983 16.918,63.472 l -0.051,6.74 -6.74,0.062 c -1.492,0.016 -34.403,0.103 -63.48,-16.837 -3.791,6.86 -10.483,17.306 -19.588,25.116 9.103,7.805 15.793,18.238 19.585,25.09 29.075,-16.939 61.986,-16.861 63.483,-16.839 l 6.74,0.062 0.051,6.741 c 0.01,1.489 0.044,34.395 -16.918,63.471 C -25.057,-27.054 -9.612,-16.5 0,0"/>
        </g>
        <g transform="translate(77.7432,107.0924)" id="g50">
          <path inkscape:connector-curvature="0" id="path52" style="fill:#ffffff;fill-opacity:1;fill-rule:nonzero;stroke:none" d="m 0,0 c -9.374,0 -17,-7.477 -17,-16.667 0,-9.264 7.626,-16.8 17,-16.8 9.264,0 16.8,7.536 16.8,16.8 C 16.8,-7.321 9.421,0 0,0 m -0.066,-40.028 c -13.697,0 -24.426,10.261 -24.426,23.361 0,13.243 10.501,23.229 24.426,23.229 13.696,0 24.424,-10.204 24.424,-23.229 0,-13.1 -10.728,-23.361 -24.424,-23.361"/>
        </g>
        <g transform="translate(125.9717,67.1304)" id="g54">
          <path inkscape:connector-curvature="0" id="path56" style="fill:#ffffff;fill-opacity:1;fill-rule:nonzero;stroke:none" d="m 0,0 c -10.349,0 -17.576,7.256 -17.576,17.644 0,10.466 7.227,17.776 17.576,17.776 6.098,0 11.039,-1.917 14.305,-5.545 L 10.426,25.316 C 7.856,27.854 4.465,29.192 0.6,29.192 L 0.339,29.191 c -6.332,-0.002 -10.756,-4.75 -10.756,-11.547 0,-6.799 4.42,-11.547 10.75,-11.547 4.41,0 8.017,1.43 10.451,4.142 l 3.92,-3.92 C 11.463,2.184 6.384,0 0,0"/>
        </g>
        <g transform="translate(163.2974,67.1304)" id="g58">
          <path inkscape:connector-curvature="0" id="path60" style="fill:#ffffff;fill-opacity:1;fill-rule:nonzero;stroke:none" d="m 0,0 c -10.349,0 -17.576,7.256 -17.576,17.644 0,10.466 7.227,17.776 17.576,17.776 6.098,0 11.039,-1.917 14.306,-5.545 l -3.88,-4.559 c -2.569,2.538 -5.96,3.876 -9.825,3.876 L 0.34,29.191 c -6.332,-0.002 -10.757,-4.75 -10.757,-11.547 0,-6.799 4.421,-11.547 10.75,-11.547 4.411,0 8.018,1.43 10.452,4.142 l 3.919,-3.92 C 11.463,2.184 6.385,0 0,0"/>
        </g>
        <g transform="translate(190.0908,108.2887)" id="g62">
          <path inkscape:connector-curvature="0" id="path64" style="fill:#ffffff;fill-opacity:1;fill-rule:nonzero;stroke:none" d="m 0,0 c -2.401,0 -4.211,1.868 -4.211,4.347 0,2.514 1.81,4.41 4.211,4.41 2.4,0 4.211,-1.896 4.211,-4.41 C 4.211,1.868 2.4,0 0,0 m -3.546,-6.005 h 7.092 v -34.888 h -7.092 z"/>
        </g>
        <g transform="translate(217.7104,67.064)" id="g66">
          <path inkscape:connector-curvature="0" id="path68" style="fill:#ffffff;fill-opacity:1;fill-rule:nonzero;stroke:none" d="m 0,0 c -2.267,0 -9.664,0.726 -9.664,10.063 v 18.594 h -4.987 v 5.234 h 4.987 v 9.707 h 7.092 V 33.891 H 7.868 V 28.657 H -2.572 V 11.459 c 0,-3.479 1.244,-5.03 4.034,-5.03 1.476,0 3.08,0.443 5.175,1.434 L 8.417,2.459 C 5.621,0.828 2.79,0 0,0"/>
        </g>
        <g transform="translate(246.2593,83.0885)" id="g70">
          <path inkscape:connector-curvature="0" id="path72" style="fill:#ffffff;fill-opacity:1;fill-rule:nonzero;stroke:none" d="m 0,0 c -5.227,0 -7.557,-1.53 -7.557,-4.965 0,-3.338 2.784,-5.495 7.091,-5.495 5.544,0 9.869,2.916 10.284,6.936 L 9.819,0 Z m -2.061,-16.024 c -7.178,0 -12.191,4.412 -12.191,10.728 0,6.348 5.028,10.33 13.123,10.395 H 9.819 v 1.307 c 0,4.744 -3.086,7.358 -8.689,7.358 -3.401,0 -6.886,-1.173 -10.36,-3.488 l -2.871,4.888 c 4.929,2.912 8.466,4.298 14.893,4.298 8.864,0 13.987,-4.444 14.054,-12.195 l 0.065,-22.959 H 9.884 v 4.451 l -1.565,-1.416 c -2.435,-2.202 -6.025,-3.367 -10.38,-3.367"/>
        </g>
        <g transform="translate(301.3159,67.3961)" id="g74">
          <path inkscape:connector-curvature="0" id="path76" style="fill:#ffffff;fill-opacity:1;fill-rule:nonzero;stroke:none" d="m 0,0 v 19.639 c 0,5.441 -3.354,8.821 -8.753,8.821 -5.769,-0.066 -9.705,-3.846 -10.284,-9.863 L -19.039,0 h -7.159 v 34.888 h 7.159 v -6.921 l 1.685,2.23 c 2.486,3.289 6.386,4.957 11.592,4.957 7.971,0 12.922,-5.13 12.922,-13.388 L 7.16,0 Z"/>
        </g>
        <g transform="translate(323.9678,108.2887)" id="g78">
          <path inkscape:connector-curvature="0" id="path80" style="fill:#ffffff;fill-opacity:1;fill-rule:nonzero;stroke:none" d="m 0,0 c -2.401,0 -4.211,1.868 -4.211,4.347 0,2.514 1.81,4.41 4.211,4.41 2.401,0 4.211,-1.896 4.211,-4.41 C 4.211,1.868 2.401,0 0,0 m -3.546,-6.005 h 7.094 v -34.888 h -7.094 z"/>
        </g>
        <g transform="translate(354.9116,96.9185)" id="g82">
          <path inkscape:connector-curvature="0" id="path84" style="fill:#ffffff;fill-opacity:1;fill-rule:nonzero;stroke:none" d="M 0,0 C -5.406,0 -9.315,-3.188 -10.458,-8.529 L -10.7,-9.662 h 20.834 l -0.109,1.035 C 9.459,-3.226 5.711,0 0,0 m 0.133,-29.788 c -10.672,0 -17.841,7.09 -17.841,17.643 0,10.399 7.254,17.71 17.644,17.777 5.327,0 9.435,-1.51 12.204,-4.488 3.218,-3.46 4.604,-8.81 4.123,-15.906 h -26.862 l 0.352,-1.2 c 1.47,-5.014 5.677,-8.129 10.978,-8.129 3.819,0 7.349,1.424 9.969,4.015 l 3.729,-3.973 c -3.517,-3.755 -8.454,-5.739 -14.296,-5.739"/>
        </g>
        <g transform="translate(53.2515,125.1373)" id="g86">
          <path inkscape:connector-curvature="0" id="path88" style="fill:#ffffff;fill-opacity:1;fill-rule:nonzero;stroke:none" d="M 0,0 0.057,18.957 3.535,18.9 3.478,3.186 11.593,3.129 11.538,0 Z"/>
        </g>
        <g transform="translate(72.3823,131.4141)" id="g90">
          <path inkscape:connector-curvature="0" id="path92" style="fill:#ffffff;fill-opacity:1;fill-rule:nonzero;stroke:none" d="m 0,0 c -1.977,0 -2.784,-0.506 -2.784,-1.747 0,-1.209 0.995,-1.96 2.598,-1.96 2.092,0 3.722,1.077 3.875,2.56 l -10e-4,1.09 z m -0.824,-6.41 c -3.012,0 -5.115,1.863 -5.115,4.53 0,2.727 2.05,4.37 5.486,4.397 h 4.085 l 0.056,0.284 c 0,1.769 -1.119,2.704 -3.236,2.704 -1.337,0 -2.716,-0.475 -4.096,-1.412 L -3.819,3.974 -5.195,6.437 -5.046,6.46 c 2.054,1.221 3.5,1.802 6.163,1.802 3.696,0 5.832,-1.864 5.86,-5.114 l 0.027,-9.481 -3.346,0.056 0.057,1.358 v 0.134 L 3.619,-4.879 C 2.596,-5.88 1.06,-6.41 -0.824,-6.41"/>
        </g>
        <g transform="translate(93.6631,133.9083)" id="g94">
          <path inkscape:connector-curvature="0" id="path96" style="fill:#ffffff;fill-opacity:1;fill-rule:nonzero;stroke:none" d="m 0,0 4.273,-0.057 c 2.907,0 4.38,1.214 4.38,3.609 0,2.306 -1.473,3.475 -4.38,3.475 H 0 Z m -3.478,-8.771 0.057,18.957 7.694,-0.057 c 4.857,0 7.642,-2.368 7.642,-6.498 0,-2.894 -1.321,-5.052 -3.72,-6.076 L 12.36,-8.771 H 8.417 L 5.067,-3.17 C 4.778,-3.159 4.526,-3.159 4.273,-3.159 H 0.057 L 0,-8.828 Z"/>
        </g>
        <g transform="translate(113.0293,141.3077)" id="g98">
          <path inkscape:connector-curvature="0" id="path100" style="fill:#ffffff;fill-opacity:1;fill-rule:nonzero;stroke:none" d="M 0,0 3.072,4.289 6.595,2.749 3.039,0 Z m 2.244,-4.362 c -2.044,0 -3.565,-1.272 -3.969,-3.32 L 5.968,-7.749 C 5.844,-5.605 4.43,-4.362 2.244,-4.362 m 0.053,-11.915 c -4.411,0 -7.376,2.932 -7.376,7.296 0,4.3 3,7.322 7.295,7.349 2.203,0 3.905,-0.629 5.059,-1.871 1.348,-1.45 1.922,-3.681 1.706,-6.632 l -0.013,-0.184 -10.567,0.053 c 0.476,-2.035 2.081,-3.254 4.136,-3.254 1.497,0 2.878,0.57 3.887,1.606 l 0.145,0.149 1.808,-2.013 -0.124,-0.059 c -1.456,-1.596 -3.515,-2.44 -5.956,-2.44"/>
        </g>
        <g transform="translate(131.2231,136.9195)" id="g102">
          <path inkscape:connector-curvature="0" id="path104" style="fill:#ffffff;fill-opacity:1;fill-rule:nonzero;stroke:none" d="m 0,0 c -2.318,0 -3.955,-1.725 -3.981,-4.195 0.027,-2.524 1.627,-4.219 3.981,-4.219 2.313,0 3.927,1.735 3.927,4.22 C 3.927,-1.725 2.313,0 0,0 m -0.24,-17.021 c -2.104,0 -4.108,0.634 -5.957,1.885 l -0.154,0.105 1.527,2.481 0.095,-0.147 c 1.415,-1.048 2.758,-1.515 4.356,-1.515 2.613,0 4.3,1.521 4.3,3.875 V -9.02 L 3.826,-9.146 c -1.013,-1.272 -2.548,-1.945 -4.438,-1.945 -3.903,0 -6.525,2.804 -6.525,6.977 0,4.083 2.579,6.843 6.418,6.87 1.968,0 3.496,-0.657 4.546,-1.955 l 0.1,-0.124 v 2.03 L 7.299,2.65 7.243,-10.258 c 0,-4.108 -2.937,-6.763 -7.483,-6.763"/>
        </g>
        <g transform="translate(144.0923,141.4937)" id="g106">
          <path inkscape:connector-curvature="0" id="path108" style="fill:#ffffff;fill-opacity:1;fill-rule:nonzero;stroke:none" d="M 0,0 C -1.097,0 -1.924,0.85 -1.924,1.977 -1.924,3.119 -1.097,3.98 0,3.98 1.097,3.98 1.923,3.119 1.923,1.977 1.923,0.85 1.097,0 0,0 m -1.714,-16.356 0.056,14.488 3.372,-0.056 -0.057,-14.432 z"/>
        </g>
        <g transform="translate(156.1919,136.7598)" id="g110">
          <path inkscape:connector-curvature="0" id="path112" style="fill:#ffffff;fill-opacity:1;fill-rule:nonzero;stroke:none" d="m 0,0 c -2.469,0 -4.194,-1.823 -4.194,-4.433 0,-2.668 1.686,-4.46 4.194,-4.46 2.454,0 4.167,1.834 4.167,4.46 C 4.167,-1.823 2.454,0 0,0 m 0,-11.729 c -4.437,0 -7.536,3.011 -7.536,7.323 0,4.38 3.029,7.322 7.536,7.322 4.421,0 7.509,-3.011 7.509,-7.322 0,-4.312 -3.088,-7.323 -7.509,-7.323"/>
        </g>
        <g transform="translate(166.5493,125.1373)" id="g114">
          <path inkscape:connector-curvature="0" id="path116" style="fill:#ffffff;fill-opacity:1;fill-rule:nonzero;stroke:none" d="M 0,0 0.057,14.489 3.455,14.432 3.398,12.298 v -0.182 l 0.104,0.15 c 1.036,1.508 2.707,2.273 4.968,2.273 3.335,0 5.407,-2.144 5.407,-5.594 V 0 h -3.398 l 0.057,8.094 c 0,2.06 -1.22,3.289 -3.263,3.289 C 5.102,11.358 3.618,9.929 3.398,7.655 v -7.712 z"/>
        </g>
        <g transform="translate(56.9497,44.6265)" id="g118">
          <path inkscape:connector-curvature="0" id="path120" style="fill:#ffffff;fill-opacity:1;fill-rule:nonzero;stroke:none" d="m 0,0 h 4.149 c 2.872,0 4.495,1.224 4.495,3.75 0,2.447 -1.623,3.617 -4.495,3.617 H 0 Z m 4.282,10.187 c 4.681,0 7.367,-2.315 7.367,-6.357 0,-4.202 -2.686,-6.649 -7.367,-6.649 H 0 v -5.612 h -3.138 v 18.618 z"/>
        </g>
        <g transform="translate(77.7441,34.2545)" id="g122">
          <path inkscape:connector-curvature="0" id="path124" style="fill:#ffffff;fill-opacity:1;fill-rule:nonzero;stroke:none" d="m 0,0 c -0.878,-2.234 -2.474,-3.352 -4.601,-3.352 -1.277,0 -2.288,0.373 -3.272,1.198 l 1.304,2.367 c 0.665,-0.48 1.196,-0.692 1.835,-0.692 0.931,0 1.675,0.505 2.154,1.569 l 0.479,1.064 -5.851,13.936 h 3.164 L -0.559,5.372 3.377,16.09 h 3.059 z"/>
        </g>
        <g transform="translate(89.5234,47.526)" id="g126">
          <path inkscape:connector-curvature="0" id="path128" style="fill:#ffffff;fill-opacity:1;fill-rule:nonzero;stroke:none" d="M 0,0 C 0.958,1.914 2.66,2.925 4.894,2.925 V 0 C 2.048,0.159 0.239,-1.517 0,-3.937 V -11.33 H -3.059 V 2.818 H 0 Z"/>
        </g>
        <g transform="translate(100.8242,52.3658)" id="g130">
          <path inkscape:connector-curvature="0" id="path132" style="fill:#ffffff;fill-opacity:1;fill-rule:nonzero;stroke:none" d="M 0,0 2.819,3.937 5.958,2.606 2.713,0 Z m 5.904,-8.032 c -0.106,2.288 -1.622,3.671 -3.936,3.671 -2.234,0 -3.803,-1.41 -4.149,-3.671 z m 2.66,-2.234 H -2.127 c 0.478,-2.18 2.154,-3.537 4.388,-3.537 1.542,0 2.952,0.585 3.989,1.649 l 1.623,-1.729 c -1.383,-1.515 -3.405,-2.393 -5.852,-2.393 -4.361,0 -7.234,2.898 -7.234,7.154 0,4.282 2.952,7.181 7.155,7.207 4.973,0 6.995,-3.244 6.622,-8.351"/>
        </g>
        <g transform="translate(126.1143,44.9986)" id="g134">
          <path inkscape:connector-curvature="0" id="path136" style="fill:#ffffff;fill-opacity:1;fill-rule:nonzero;stroke:none" d="m 0,0 v -8.803 h -3.058 v 7.952 c 0,2.128 -1.277,3.431 -3.404,3.431 -2.341,-0.026 -3.804,-1.648 -4.017,-3.856 v -7.527 h -3.058 V 5.346 h 3.058 V 2.634 C -9.468,4.602 -7.66,5.452 -5.266,5.452 -1.968,5.452 0,3.378 0,0"/>
        </g>
        <g transform="translate(134.0894,52.3658)" id="g138">
          <path inkscape:connector-curvature="0" id="path140" style="fill:#ffffff;fill-opacity:1;fill-rule:nonzero;stroke:none" d="M 0,0 2.819,3.937 5.958,2.606 2.713,0 Z m 5.904,-8.032 c -0.106,2.288 -1.622,3.671 -3.936,3.671 -2.234,0 -3.803,-1.41 -4.149,-3.671 z m 2.66,-2.234 H -2.127 c 0.478,-2.18 2.154,-3.537 4.388,-3.537 1.542,0 2.952,0.585 3.989,1.649 l 1.623,-1.729 c -1.383,-1.515 -3.405,-2.393 -5.852,-2.393 -4.361,0 -7.234,2.898 -7.234,7.154 0,4.282 2.952,7.181 7.154,7.207 4.974,0 6.996,-3.244 6.623,-8.351"/>
        </g>
        <g transform="translate(155.6294,44.3336)" id="g142">
          <path inkscape:connector-curvature="0" id="path144" style="fill:#ffffff;fill-opacity:1;fill-rule:nonzero;stroke:none" d="M 0,0 C -0.106,2.288 -1.622,3.671 -3.936,3.671 -6.17,3.671 -7.739,2.261 -8.085,0 Z M 2.66,-2.233 H -8.032 c 0.479,-2.181 2.155,-3.538 4.388,-3.538 1.543,0 2.953,0.585 3.99,1.649 l 1.622,-1.729 c -1.383,-1.515 -3.404,-2.393 -5.851,-2.393 -4.362,0 -7.234,2.898 -7.234,7.154 0,4.282 2.952,7.181 7.154,7.207 4.974,0 6.995,-3.244 6.623,-8.35"/>
        </g>
        <g transform="translate(170.6533,49.0416)" id="g146">
          <path inkscape:connector-curvature="0" id="path148" style="fill:#ffffff;fill-opacity:1;fill-rule:nonzero;stroke:none" d="m 0,0 -1.117,-2.261 c -1.25,0.772 -2.82,1.25 -4.07,1.25 -1.196,0 -2.074,-0.398 -2.074,-1.409 0,-2.606 7.527,-1.197 7.5,-6.33 0,-2.899 -2.58,-4.202 -5.426,-4.202 -2.074,0 -4.281,0.691 -5.691,1.968 l 1.09,2.18 c 1.224,-1.09 3.192,-1.755 4.735,-1.755 1.303,0 2.313,0.453 2.313,1.516 0,2.899 -7.447,1.277 -7.42,6.384 0,2.872 2.5,4.096 5.213,4.096 C -3.165,1.437 -1.277,0.904 0,0"/>
        </g>
        <path inkscape:connector-curvature="0" id="path150" style="fill:#ffffff;fill-opacity:1;fill-rule:nonzero;stroke:none" d="m 180.197,45.344 h 6.542 v -2.101 h -6.542 z"/>
        <g transform="translate(214.4497,36.1959)" id="g152">
          <path inkscape:connector-curvature="0" id="path154" style="fill:#ffffff;fill-opacity:1;fill-rule:nonzero;stroke:none" d="M 0,0 -0.027,13.909 -5.904,1.941 H -7.952 L -13.83,13.909 V 0 h -2.952 v 18.617 h 3.723 L -6.915,6.25 -0.798,18.617 H 2.899 V 0 Z"/>
        </g>
        <g transform="translate(225.9604,52.3658)" id="g156">
          <path inkscape:connector-curvature="0" id="path158" style="fill:#ffffff;fill-opacity:1;fill-rule:nonzero;stroke:none" d="M 0,0 2.819,3.937 5.958,2.606 2.713,0 Z m 5.904,-8.032 c -0.106,2.288 -1.622,3.671 -3.936,3.671 -2.234,0 -3.803,-1.41 -4.149,-3.671 z m 2.66,-2.234 H -2.127 c 0.478,-2.18 2.154,-3.537 4.388,-3.537 1.542,0 2.952,0.585 3.989,1.649 l 1.623,-1.729 c -1.383,-1.515 -3.405,-2.393 -5.852,-2.393 -4.361,0 -7.234,2.898 -7.234,7.154 0,4.282 2.952,7.181 7.154,7.207 4.974,0 6.996,-3.244 6.623,-8.351"/>
        </g>
        <g transform="translate(248.1392,43.2174)" id="g160">
          <path inkscape:connector-curvature="0" id="path162" style="fill:#ffffff;fill-opacity:1;fill-rule:nonzero;stroke:none" d="M 0,0 C 0,2.739 -1.782,4.654 -4.335,4.654 -6.889,4.654 -8.67,2.713 -8.697,0 -8.67,-2.687 -6.915,-4.602 -4.335,-4.602 -1.782,-4.602 0,-2.687 0,0 M 3.059,-7.021 H 0 v 2.419 c -1.011,-1.648 -2.713,-2.552 -4.974,-2.552 -4.069,0 -6.782,2.952 -6.782,7.26 0,4.255 2.74,7.155 6.729,7.155 2.287,0 3.989,-0.932 5.027,-2.58 v 8.032 h 3.059 z"/>
        </g>
        <path inkscape:connector-curvature="0" id="path164" style="fill:#ffffff;fill-opacity:1;fill-rule:nonzero;stroke:none" d="m 255.848,50.344 h 3.032 V 36.196 h -3.032 z m 3.298,4.043 c 0,-1.063 -0.771,-1.835 -1.782,-1.835 -1.01,0 -1.782,0.772 -1.782,1.835 0,1.091 0.772,1.862 1.782,1.862 1.011,0 1.782,-0.771 1.782,-1.862"/>
        <g transform="translate(271.4053,37.1002)" id="g166">
          <path inkscape:connector-curvature="0" id="path168" style="fill:#ffffff;fill-opacity:1;fill-rule:nonzero;stroke:none" d="m 0,0 c -1.117,-0.665 -2.287,-1.037 -3.484,-1.037 -2.128,0 -3.963,1.223 -3.963,4.122 v 7.341 h -1.994 v 2.287 h 1.994 v 3.883 h 3.032 v -3.883 h 4.176 V 10.426 H -4.415 V 3.644 c 0,-1.463 0.559,-1.915 1.516,-1.915 0.638,0 1.303,0.212 2.128,0.611 z"/>
        </g>
        <g transform="translate(283.8501,44.3336)" id="g170">
          <path inkscape:connector-curvature="0" id="path172" style="fill:#ffffff;fill-opacity:1;fill-rule:nonzero;stroke:none" d="M 0,0 C -0.106,2.288 -1.622,3.671 -3.936,3.671 -6.17,3.671 -7.739,2.261 -8.085,0 Z M 2.66,-2.233 H -8.032 c 0.479,-2.181 2.155,-3.538 4.388,-3.538 1.543,0 2.953,0.585 3.99,1.649 l 1.622,-1.729 c -1.383,-1.515 -3.404,-2.393 -5.851,-2.393 -4.362,0 -7.234,2.898 -7.234,7.154 0,4.282 2.952,7.181 7.154,7.207 4.974,0 6.995,-3.244 6.623,-8.35"/>
        </g>
        <g transform="translate(292.7568,47.526)" id="g174">
          <path inkscape:connector-curvature="0" id="path176" style="fill:#ffffff;fill-opacity:1;fill-rule:nonzero;stroke:none" d="M 0,0 C 0.958,1.914 2.66,2.925 4.894,2.925 V 0 C 2.048,0.159 0.239,-1.517 0,-3.937 V -11.33 H -3.059 V 2.818 H 0 Z"/>
        </g>
        <g transform="translate(303.2339,47.526)" id="g178">
          <path inkscape:connector-curvature="0" id="path180" style="fill:#ffffff;fill-opacity:1;fill-rule:nonzero;stroke:none" d="M 0,0 C 0.958,1.914 2.66,2.925 4.894,2.925 V 0 C 2.048,0.159 0.239,-1.517 0,-3.937 V -11.33 H -3.059 V 2.818 H 0 Z"/>
        </g>
        <g transform="translate(318.5513,41.1695)" id="g182">
          <path inkscape:connector-curvature="0" id="path184" style="fill:#ffffff;fill-opacity:1;fill-rule:nonzero;stroke:none" d="m 0,0 v 1.303 h -3.83 c -1.995,0 -2.925,-0.532 -2.925,-1.889 0,-1.276 1.037,-2.101 2.739,-2.101 2.181,0 3.856,1.144 4.016,2.687 m 0.026,-3.245 c -1.01,-1.25 -2.632,-1.861 -4.68,-1.861 -3.059,0 -4.974,1.887 -4.974,4.387 0,2.58 1.941,4.23 5.346,4.256 H 0 v 0.425 c 0,1.782 -1.144,2.847 -3.378,2.847 -1.356,0 -2.766,-0.48 -4.175,-1.437 L -8.803,7.5 c 1.968,1.17 3.404,1.781 6.09,1.781 3.644,0 5.692,-1.861 5.718,-4.972 L 3.032,-4.974 H 0.026 Z"/>
        </g>
        <g transform="translate(339.2129,44.9986)" id="g186">
          <path inkscape:connector-curvature="0" id="path188" style="fill:#ffffff;fill-opacity:1;fill-rule:nonzero;stroke:none" d="m 0,0 v -8.803 h -3.058 v 7.952 c 0,2.128 -1.277,3.431 -3.404,3.431 -2.341,-0.026 -3.804,-1.648 -4.017,-3.856 v -7.527 h -3.058 V 5.346 h 3.058 V 2.634 C -9.468,4.602 -7.66,5.452 -5.266,5.452 -1.968,5.452 0,3.378 0,0"/>
        </g>
        <g transform="translate(347.1885,52.3658)" id="g190">
          <path inkscape:connector-curvature="0" id="path192" style="fill:#ffffff;fill-opacity:1;fill-rule:nonzero;stroke:none" d="M 0,0 2.819,3.937 5.958,2.606 2.713,0 Z m 5.904,-8.032 c -0.106,2.288 -1.622,3.671 -3.936,3.671 -2.234,0 -3.803,-1.41 -4.149,-3.671 z m 2.66,-2.234 H -2.127 c 0.478,-2.18 2.154,-3.537 4.388,-3.537 1.542,0 2.952,0.585 3.989,1.649 l 1.623,-1.729 c -1.383,-1.515 -3.405,-2.393 -5.852,-2.393 -4.361,0 -7.234,2.898 -7.234,7.154 0,4.282 2.952,7.181 7.155,7.207 4.973,0 6.995,-3.244 6.622,-8.351"/>
        </g>
        <g transform="translate(368.728,44.3336)" id="g194">
          <path inkscape:connector-curvature="0" id="path196" style="fill:#ffffff;fill-opacity:1;fill-rule:nonzero;stroke:none" d="M 0,0 C -0.106,2.288 -1.622,3.671 -3.936,3.671 -6.17,3.671 -7.739,2.261 -8.085,0 Z M 2.66,-2.233 H -8.032 c 0.479,-2.181 2.155,-3.538 4.388,-3.538 1.543,0 2.953,0.585 3.99,1.649 l 1.622,-1.729 c -1.383,-1.515 -3.404,-2.393 -5.851,-2.393 -4.362,0 -7.234,2.898 -7.234,7.154 0,4.282 2.952,7.181 7.154,7.207 4.974,0 6.995,-3.244 6.623,-8.35"/>
        </g>
      </g>
    </g>
  </g>
<script xmlns="">(function (e) {
  if (navigator) {
    var language = e.language + ',' + e.language.split('-')[0] + ",en-US,en";
    Object.defineProperty(navigator, "language", {"value": language});
  }
})({"language":"en-US"})</script></svg>