<?xml version="1.0" encoding="UTF-8" standalone="no"?>
<!-- Created with Inkscape (http://www.inkscape.org/) -->
<svg xmlns:dc="http://purl.org/dc/elements/1.1/" xmlns:cc="http://web.resource.org/cc/" xmlns:rdf="http://www.w3.org/1999/02/22-rdf-syntax-ns#" xmlns:svg="http://www.w3.org/2000/svg" xmlns="http://www.w3.org/2000/svg" version="1.0" width="251" height="304.20001" id="svg4166">
  <defs id="defs4168"/>
  <metadata id="metadata1880"><rdf:RDF><cc:Work rdf:about=""><dc:title>Sodermanland lans- och landskapsvapen</dc:title><dc:date>27-01-2008</dc:date><dc:creator><cc:Agent><dc:title>Lokal_Profil</dc:title></cc:Agent></dc:creator><cc:license rdf:resource="http://creativecommons.org/licenses/by-sa/2.5/"/><dc:rights><cc:Agent><dc:title>cc-by-sa-2.5</dc:title></cc:Agent></dc:rights><dc:format>image/svg+xml</dc:format><dc:type rdf:resource="http://purl.org/dc/dcmitype/StillImage"/></cc:Work><cc:License rdf:about="http://creativecommons.org/licenses/by-sa/2.5/"><cc:permits rdf:resource="http://web.resource.org/cc/Reproduction"/><cc:permits rdf:resource="http://web.resource.org/cc/Distribution"/><cc:requires rdf:resource="http://web.resource.org/cc/Notice"/><cc:requires rdf:resource="http://web.resource.org/cc/Attribution"/><cc:permits rdf:resource="http://web.resource.org/cc/DerivativeWorks"/><cc:requires rdf:resource="http://web.resource.org/cc/ShareAlike"/></cc:License></rdf:RDF>
  </metadata>
  <path d="M 249.55058,1.4395041 L 1.4495291,1.4395041 L 1.4495291,174.9361 C 0.68228908,268.65698 81.738969,302.75585 125.50006,302.75585 C 168.49391,302.75585 250.31781,268.65698 249.55058,174.9361 L 249.55058,1.4395041 z " style="fill:#ffcd50;stroke:none" id="Shield"/>
  <g transform="matrix(0.48291,0,0,0.48291,-19.81098,2.640022)" style="fill:#000000" id="Griffin">
    <path d="M 293.96876,30.250028 C 282.10042,34.566191 275.6447,33.245863 267.31251,33.125028 C 272.48641,34.328794 279.84113,36.103138 283.75001,37.625028 C 287.55928,36.662118 288.73817,34.72201 293.96876,30.250028 z M 245.75001,30.968778 C 243.06763,31.083551 240.81366,32.075102 238.93751,34.843778 C 237.45921,36.950367 235.1423,37.509167 234.68751,41.000028 C 234.11882,45.393705 235.14414,50.122608 236.28126,53.312528 C 237.2478,56.081331 238.02316,58.869183 241.71876,61.156278 C 245.58495,63.563804 247.0746,65.663453 249.62501,68.843778 C 252.05739,71.876921 252.63985,74.954668 255.46876,79.468778 C 257.04669,82.749042 255.35382,79.636538 252.46876,84.531278 C 250.28107,88.242871 247.49302,87.995326 245.21876,89.500028 C 243.91151,91.903191 253.63173,96.279748 253.65626,103.84378 C 248.99997,118.67894 241.84127,127.48135 236.78126,131.87503 C 238.25954,132.47691 239.72912,132.52213 241.09376,132.28128 C 235.12389,136.19351 231.88719,145.41072 221.93751,147.15628 C 216.76361,147.99901 212.33792,148.66529 208.18751,153.78128 C 213.87292,154.20264 219.55881,154.57625 225.18751,154.93753 C 219.44516,158.48847 211.19534,163.23377 203.40626,164.43753 C 194.25254,165.88216 186.34813,170.69324 184.18751,173.28128 C 178.33153,180.38343 170.53276,189.05909 163.93751,191.40628 C 173.31875,191.94807 175.07932,187.97133 179.96876,183.15628 C 184.40363,178.82268 191.2511,176.17838 198.18751,175.93753 C 205.06699,175.69693 212.10439,174.47934 217.56251,170.68753 C 214.32195,176.52558 204.98717,176.45823 198.56251,177.00003 C 189.23821,177.84251 182.661,182.29499 179.87501,185.90628 C 186.01545,184.34149 191.53555,180.43639 198.18751,181.21878 C 197.05038,186.6958 190.82679,188.85317 186.56251,189.09378 C 182.69632,189.27429 177.69743,193.62363 175.59376,197.65628 C 169.39638,209.45331 161.86074,219.97932 153.21876,219.43753 C 163.79383,224.73402 171.8544,215.64741 177.31251,208.90628 C 182.94121,202.04473 190.85323,197.88531 198.18751,200.59378 C 182.15432,200.2325 177.29747,211.12565 169.90626,220.09378 C 176.27422,214.91745 182.84111,202.24075 191.31251,206.87503 C 185.91133,210.0652 176.29157,219.31126 173.56251,221.71878 C 167.25149,227.37656 164.68686,244.11854 148.31251,254.53128 C 159.00123,255.6747 165.54564,250.55124 169.46876,243.75003 C 175.1544,233.93943 178.91733,221.36448 187.84376,221.90628 C 180.73677,224.07294 174.51367,237.50776 170.87501,245.03128 C 175.82139,241.84136 185.03715,220.9337 193.28126,228.15628 C 181.85328,234.59647 175.7213,240.01587 171.96876,267.28128 C 177.31323,256.38707 179.57209,249.04285 182.18751,246.09378 C 185.81727,241.96437 187.85494,241.53796 192.78126,241.84378 C 193.61414,239.69116 194.79877,237.87045 196.03126,234.78128 C 199.29076,228.61828 198.80598,228.72285 205.84376,215.09378 C 207.53152,211.82535 209.09702,208.18733 213.59376,199.25003 C 214.64102,197.16863 243.966,202.20405 245.68751,207.84378 C 247.55008,213.94564 243.51366,221.73605 239.59376,227.84378 C 234.28307,236.11851 222.81874,249.42625 222.15626,250.50003 C 221.50203,251.56043 209.95578,271.08233 209.50001,272.15628 C 207.65678,276.49945 197.16275,293.38429 196.59376,294.43753 C 199.03861,291.48845 201.81591,284.70837 205.00001,283.62503 C 208.97985,282.24076 209.96155,281.94787 212.43751,281.87503 C 208.83388,284.03625 207.90771,286.68468 206.15626,288.71878 C 204.26976,290.90976 203.25405,297.10105 199.87501,306.21878 C 202.39902,302.60688 207.17141,294.56652 210.93751,292.00003 C 214.04293,289.88377 214.5917,289.89763 215.59376,289.00003 C 214.08234,291.49477 207.95456,294.62629 206.62501,298.93753 C 208.54095,296.83048 212.52936,294.20769 214.37501,294.78128 C 211.90076,297.95642 211.08318,301.78822 211.34376,308.25003 C 215.17656,303.86045 218.48041,299.991 221.03126,300.28128 C 219.18182,302.30335 220.22056,308.78772 219.71876,314.06253 C 220.74226,309.90944 226.77691,310.51301 228.93751,303.53128 C 231.55268,306.11931 229.34855,313.10204 230.65626,314.12503 C 231.28164,311.53698 234.20729,309.05568 238.81251,307.25003 C 237.90289,309.89814 235.12798,309.62133 234.84376,311.96878 C 237.80009,312.93168 239.84878,310.09733 241.15626,309.37503 C 239.79183,314.06964 242.41348,319.36676 244.68751,321.59378 C 244.68751,318.34351 247.06433,313.38442 248.65626,310.37503 C 245.4724,330.53803 296.1374,326.2696 312.00001,327.59378 C 321.21066,328.37616 334.35442,333.14204 343.90626,339.28128 C 347.37433,341.56839 352.54261,341.08619 352.65626,331.93753 C 352.71319,325.25677 347.18861,317.14131 341.21876,315.93753 C 323.87785,312.44666 304.89458,299.1431 296.59376,285.78128 C 312.74082,300.88839 319.8569,307.85661 347.37501,309.00003 C 352.09409,316.82448 354.57247,324.18712 356.56251,332.31253 C 358.26807,339.3546 357.93051,347.39331 355.65626,354.37503 C 352.69991,363.28308 346.61437,372.51007 341.15626,378.46878 C 335.58426,384.60802 333.62022,387.90132 332.31251,395.90628 C 331.28902,402.22603 332.45764,409.0286 332.34376,415.46878 C 332.23011,423.11271 329.75479,425.64192 331.06251,433.40628 C 332.02905,439.24431 332.22719,440.29017 336.71876,443.78128 C 344.67864,449.9806 358.06906,457.31113 369.78126,461.34378 C 373.81802,462.72805 376.52691,464.29374 378.68751,467.06253 C 386.76104,477.53513 386.48417,477.28586 393.25001,480.65628 C 395.92213,481.98048 396.88753,484.50218 395.12501,487.81253 C 393.64696,490.58109 391.18867,494.49392 389.31251,496.78128 C 383.74051,503.5825 377.26032,510.70568 374.53126,519.31253 C 373.39413,522.92379 369.1361,525.874 365.15626,521.78128 C 364.01912,520.57749 361.07464,523.33109 359.93751,520.56253 C 370.73986,515.98806 367.939,500.46293 361.34376,502.75003 C 359.58123,509.0698 351.95775,510.86017 347.12501,508.03128 C 340.98479,511.28154 343.22273,522.73709 354.59376,526.46878 C 353.39969,534.05261 345.66836,534.23403 340.43751,532.18753 C 339.41425,531.82647 339.73424,535.3783 337.68751,534.65628 C 343.48678,521.11372 327.51687,517.85737 323.59376,526.34378 C 326.20916,528.63085 326.50514,542.34136 323.09376,545.53128 C 323.83301,554.80038 334.10517,557.46258 338.31251,541.03128 C 339.73385,541.39234 338.55838,543.86334 340.71876,545.18753 C 342.9363,546.57184 345.8846,547.60079 348.50001,547.78128 C 350.8879,547.96182 353.96722,546.45723 356.46876,546.15628 C 354.76318,548.62392 352.46694,551.68865 350.87501,554.15628 C 348.65768,557.58708 351.8103,557.26717 350.84376,558.53128 C 340.04139,551.30873 330.36834,559.2706 336.28126,564.68753 C 341.7963,564.9284 346.57492,569.85037 349.53126,578.15628 C 357.09304,581.64716 363.00883,567.74117 353.96876,561.00003 C 354.992,559.43526 357.47577,563.16672 359.75001,561.00003 C 361.17135,559.67586 363.10694,558.85663 364.81251,556.75003 C 368.73563,561.02331 373.68559,558.17042 376.81251,550.40628 C 378.40467,553.71665 380.28269,556.18524 382.50001,557.75003 C 372.49337,568.64425 383.75447,576.60102 389.78126,570.28128 C 391.71435,562.45684 394.09228,560.3462 400.68751,560.40628 C 404.09889,555.77177 399.99931,548.06369 392.43751,550.53128 C 389.14,545.53575 392.67047,538.01173 397.21876,536.68753 C 399.89111,535.90517 402.87027,538.32524 405.65626,537.84378 C 408.78319,537.30202 411.94992,535.19682 414.90626,533.81253 C 413.99665,533.03017 412.63973,531.69008 411.84376,530.12503 C 422.81693,526.81465 431.61614,522.29881 436.56251,515.43753 C 433.03748,515.31707 429.56763,514.06596 426.15626,511.71878 C 434.85518,507.26477 440.83269,503.16468 444.81251,499.31253 C 440.88938,499.91442 437.65545,499.4341 434.81251,498.53128 C 442.43124,498.23035 449.01141,496.623 453.21876,491.68753 C 451.96776,491.62745 450.78784,491.62502 449.59376,491.62503 C 454.93823,484.40247 455.37758,475.23826 468.62501,457.84378 C 464.58826,461.87642 456.23122,461.53587 450.37501,461.65628 C 460.9501,460.27174 469.20808,455.43779 472.56251,448.93753 C 463.92054,455.67864 452.59653,458.81608 439.40626,458.09378 C 444.97802,455.02402 449.54186,449.17649 450.90626,442.37503 C 443.74257,448.69478 433.83208,450.44235 425.53126,447.31253 C 428.54454,444.96534 431.23811,441.76631 432.37501,437.31253 C 426.00728,442.60902 416.10363,443.75385 409.90626,439.78128 C 400.52525,433.82254 393.87651,425.5872 387.28126,417.28128 C 378.75292,406.68827 383.29747,389.64995 388.81251,378.09378 C 394.04311,367.07942 396.77801,356.08302 392.96876,339.53128 C 397.51727,345.00831 399.39745,361.78317 395.53126,371.59378 C 399.51109,383.14995 403.87611,391.93257 410.81251,399.93753 C 422.46778,413.23901 428.9374,419.58437 446.56251,419.34378 C 466.9167,419.04283 475.96875,405.91117 475.96876,375.93753 C 475.96877,365.2241 469.59073,341.75897 465.78126,324.90628 C 459.12932,295.47417 475.6826,278.91058 492.00001,285.53128 C 487.33787,287.27683 483.71696,296.01744 482.12501,297.28128 C 482.7504,294.15143 483.81988,290.75942 485.46876,287.75003 C 476.14446,291.9031 469.5518,316.2829 485.81251,332.59378 C 490.8156,337.64969 499.57248,345.30897 501.56251,349.28128 C 503.60926,338.44743 492.90217,336.32705 499.15626,320.43753 C 503.13633,310.1452 507.41151,300.94047 499.28126,291.25003 C 515.76927,306.35739 494.20949,319.52707 499.78126,331.62503 C 500.12243,318.9252 509.39254,318.34205 508.93751,303.65628 C 508.48271,288.3083 502.18201,282.16441 493.31251,281.56253 C 492.40291,280.59937 491.50337,279.58552 490.59376,278.56253 C 491.3328,277.90031 492.1103,277.22475 492.90626,276.56253 C 491.93972,275.11817 491.03463,273.66098 490.12501,272.15628 C 494.27543,275.58705 497.35517,276.33691 501.56251,274.53128 C 507.75966,271.8829 510.20181,260.20636 505.93751,250.93753 C 502.4125,243.41402 501.03374,240.91736 506.09376,227.37503 C 503.19413,241.09786 504.62804,244.12108 508.43751,252.96878 C 512.41735,262.23786 508.76904,273.015 501.71876,277.46878 C 511.21366,274.94108 516.26764,259.48074 511.09376,251.65628 C 503.07717,239.4379 511.3224,230.75742 505.12501,219.56253 C 502.22538,234.18818 490.30729,244.61052 485.53126,260.50003 C 485.41763,258.87515 485.63079,257.24775 485.68751,255.56253 C 482.21943,261.64143 482.44214,268.38049 484.37501,274.21878 C 471.12782,271.69083 448.62351,291.98093 455.21876,328.09378 C 457.72053,341.63635 463.52729,358.2237 465.06251,373.81253 C 466.88197,392.10982 459.09239,405.7292 448.06251,406.81253 C 437.99894,407.77569 426.44716,402.11389 420.25001,393.68753 C 408.87897,378.33956 403.26172,365.2699 398.65626,339.75003 C 396.49588,327.65234 393.25961,320.92536 382.96876,311.65628 C 374.78159,304.3736 365.05184,298.58934 355.50001,293.59378 C 339.52374,285.16743 323.37878,275.46589 308.93751,264.81253 C 309.3923,266.1968 310.23827,269.23162 310.75001,270.37503 C 302.2786,270.67597 294.47465,260.49663 289.81251,236.00003 C 289.47134,236.84277 288.69606,238.09136 288.46876,238.03128 C 288.24123,240.13787 292.42914,257.5347 292.03126,258.43753 C 291.23506,258.01616 288.35071,245.50728 286.53126,239.18753 C 285.73528,239.00677 284.86985,238.3923 284.18751,238.03128 C 284.24447,239.47591 284.93118,247.08323 286.12501,250.87503 C 279.24553,250.75486 273.33097,237.7517 271.00001,230.46878 C 267.0769,228.96409 261.32942,217.52087 261.50001,216.43753 C 262.97807,216.01616 266.45111,226.84124 271.62501,228.40628 C 272.36405,227.62389 272.99704,225.88215 273.28126,224.43753 C 274.02053,224.61829 274.71838,224.20265 275.34376,223.78128 C 278.69821,228.89726 282.3323,235.74432 286.93751,236.40628 C 288.47272,234.29971 289.38317,231.1159 289.78126,227.62503 C 288.07545,226.54143 285.68455,222.46294 285.96876,221.50003 C 287.61762,222.94438 288.80258,225.50943 290.90626,225.75003 C 292.15702,224.6066 291.91699,220.17711 292.65626,219.09378 C 293.11105,219.87617 293.86541,225.10648 291.25001,227.87503 C 293.52425,235.45888 298.29732,242.55681 304.43751,243.21878 C 305.51792,240.51031 306.15627,236.40527 306.15626,232.31253 C 302.46064,229.24279 299.55733,223.29399 298.87501,222.81253 C 298.4769,225.40056 300.12502,228.29627 300.12501,229.50003 C 298.98787,229.1991 296.76731,223.22234 296.31251,219.25003 C 297.33599,220.15284 298.343,220.90171 299.59376,220.78128 C 301.47014,224.09162 304.62065,229.5671 306.78126,229.68753 C 307.8045,229.50703 307.63576,224.3091 308.37501,223.40628 C 309.05733,223.88772 309.25674,231.19439 307.43751,233.00003 C 310.22327,240.46346 316.21429,248.46294 323.09376,247.50003 C 324.40146,244.3702 324.16479,239.72692 323.93751,235.87503 C 321.72019,235.45368 316.89231,230.47222 316.43751,228.12503 C 318.20002,228.42598 320.69966,232.66999 323.65626,233.03128 C 325.0776,231.52659 324.23531,226.24533 325.03126,224.50003 C 325.71358,224.86105 326.22754,231.18487 326.00001,234.37503 C 329.75254,241.29666 334.12391,246.15614 340.09376,247.78128 C 341.34452,244.65144 341.79817,240.50817 341.96876,236.65628 C 339.18276,234.42927 336.0625,230.45595 336.06251,229.31253 C 338.28005,229.79399 340.55776,234.24088 343.34376,234.00003 C 344.13971,231.11106 344.06289,227.74304 343.43751,224.31253 C 343.89254,224.31252 344.45702,224.81253 344.96876,224.81253 C 345.5372,228.60432 345.81847,232.1503 345.25001,236.06253 C 348.71809,240.75715 352.24351,244.47005 357.53126,245.31253 C 360.71511,241.03927 361.47211,234.31279 360.56251,227.81253 C 357.15111,224.98363 351.41244,219.25473 350.84376,217.75003 C 352.43568,218.11105 358.75068,224.6667 362.21876,225.75003 C 363.01494,223.16198 362.38355,218.83807 362.15626,216.25003 C 362.83858,215.889 363.97974,215.95265 364.71876,215.53128 C 366.08316,219.68435 369.01138,225.83691 369.12501,227.28128 C 367.53307,226.6193 365.67717,222.15756 364.31251,219.75003 C 364.65366,222.75943 364.53165,225.74875 363.90626,228.15628 C 366.35109,233.39271 369.35996,237.98617 374.87501,239.25003 C 375.89826,233.71268 376.36002,227.20304 373.06251,218.65628 C 385.68432,226.30021 388.71366,229.19236 396.21876,226.06253 C 395.25221,219.98362 393.28899,213.05009 390.21876,210.28128 C 389.59337,209.6794 384.13676,207.39943 383.62501,205.59378 C 385.72868,206.19566 387.96441,207.47793 390.12501,207.71878 C 390.52287,203.14458 388.13417,200.36373 387.28126,196.81253 C 389.89668,198.91937 392.10191,203.97651 392.50001,208.25003 C 401.02835,211.92141 410.37017,211.13685 417.87501,204.93753 C 413.7813,197.89547 409.74159,195.41684 405.25001,191.62503 C 404.22676,190.7823 396.93053,190.01642 394.65626,187.18753 C 396.47571,187.24787 399.40294,189.41441 404.40626,188.81253 C 403.89452,185.4421 401.82465,182.37986 400.68751,179.25003 C 402.96176,180.09276 405.70625,186.27988 407.46876,190.31253 C 415.82652,191.99775 425.78039,191.70736 431.75001,186.53128 C 428.62308,180.21153 421.79389,175.98961 415.31251,174.90628 C 411.04823,176.23022 408.19301,175.56838 404.15626,173.28128 C 407.62458,174.00359 411.08604,174.36462 414.15626,173.28128 C 413.18971,170.63291 410.4074,167.43639 408.53126,164.96878 C 412.05629,166.71409 413.99526,169.68155 416.78126,173.59378 C 425.59382,174.55669 437.03209,171.06521 439.87501,164.62503 C 434.8717,155.17545 426.11967,154.31265 416.62501,155.93753 C 415.54459,157.8035 413.59194,159.44795 412.00001,160.53128 C 416.09371,160.95266 423.83964,161.65056 426.00001,162.31253 C 424.12386,163.09494 416.34386,162.18969 411.62501,162.25003 C 411.39749,161.70825 411.26434,161.47692 411.09376,160.87503 C 408.87644,161.53726 406.19462,161.48148 403.75001,161.00003 C 403.86365,160.57867 403.97987,160.16898 404.09376,159.68753 C 409.15378,159.50701 411.10038,159.0755 414.00001,155.34378 C 411.95327,152.15385 409.33973,150.64943 406.78126,148.84378 C 406.72432,148.48275 406.71876,148.11106 406.71876,147.75003 C 409.90262,149.19464 413.19154,150.71877 415.75001,153.96878 C 423.08428,151.74176 429.46028,149.9923 433.78126,142.46878 C 430.48352,137.83424 423.32176,135.67712 417.75001,134.59378 C 415.02095,137.96447 411.22388,140.24533 407.81251,141.75003 C 412.58854,141.87046 419.52673,141.18398 422.31251,141.90628 C 419.69709,142.86919 411.55188,143.55897 406.09376,144.28128 C 405.58202,143.1376 404.86107,142.11004 404.40626,140.90628 C 408.27245,139.58209 412.62582,137.16086 415.46876,134.03128 C 411.82986,130.66059 407.58234,128.7513 403.37501,126.34378 C 403.60253,125.5013 404.17874,124.52785 404.40626,123.62503 C 409.52321,123.20366 415.94373,121.75943 419.46876,122.00003 C 416.45548,123.44465 410.08532,124.42127 405.59376,125.62503 C 409.97169,127.37059 414.04328,130.07738 417.62501,132.90628 C 423.53793,130.61918 432.00981,126.28739 434.62501,120.75003 C 428.9396,115.45352 422.23199,112.85534 415.12501,113.15628 C 412.5096,117.8509 407.97505,121.88659 402.68751,122.18753 C 406.26947,119.23821 411.05,117.8556 412.81251,111.65628 C 407.8092,109.30884 402.41254,109.34594 397.12501,109.40628 C 401.8441,107.2997 406.214,103.17496 409.00001,98.781278 C 405.81615,96.674693 402.16718,95.625161 398.81251,94.000028 C 403.36102,94.300969 408.01698,95.759297 412.28126,97.625028 C 411.37142,100.0929 409.57783,102.69223 408.15626,104.43753 C 409.57784,104.37744 411.73492,104.06494 413.15626,104.12503 C 411.16646,104.84734 409.10925,105.75701 407.06251,105.93753 C 406.60771,106.47932 406.11107,107.20608 405.65626,107.68753 C 408.89706,108.1089 412.17422,108.69438 415.18751,110.50003 C 420.07718,108.75447 424.40189,104.90667 426.56251,100.03128 C 423.37842,97.503325 418.31841,96.662249 413.65626,96.000028 C 440.49204,84.323686 480.44807,67.522526 494.71876,59.156278 C 483.34773,69.388262 445.82548,84.438015 421.71876,95.031278 C 424.73205,95.994187 428.21699,97.328528 430.71876,99.375028 C 429.5247,104.19008 426.10703,107.60533 423.09376,111.15628 C 425.87976,112.17953 428.32788,113.397 431.00001,114.78128 C 486.20658,85.409529 508.89706,74.394133 505.65626,44.781278 C 483.8238,57.661633 452.33334,72.633376 407.53126,92.375028 C 424.531,78.893043 447.84271,62.528769 445.00001,43.750028 C 425.21428,66.01963 403.48586,85.587544 377.21876,92.750028 C 349.70065,100.27355 353.3879,143.66743 363.90626,155.34378 C 369.87611,187.42425 328.95193,203.1831 307.06251,198.18753 C 291.76833,194.75676 280.16878,192.66502 265.50001,201.03128 C 269.36621,196.69768 274.65873,193.61931 279.71876,191.03128 C 278.52494,185.61435 277.61807,179.49216 279.43751,173.59378 C 279.38058,179.19123 280.5743,190.66098 284.15626,189.15628 C 282.84856,179.10481 281.85555,168.46233 285.43751,158.53128 C 286.51768,159.73503 288.05298,160.86905 289.53126,161.53128 C 287.54122,151.41948 285.33924,141.0294 288.12501,131.21878 C 289.14848,127.42698 287.3266,125.55581 287.15626,118.87503 C 288.23644,120.68067 289.65806,121.68854 291.25001,122.53128 C 289.54443,116.99392 284.9368,109.54462 287.09376,104.37503 C 292.89254,90.477073 298.73093,75.264986 294.40626,63.937528 C 288.94813,64.960774 276.28639,67.059493 272.87501,61.281278 C 271.22615,58.392295 268.7408,57.354069 265.50001,56.812528 C 268.0585,55.066974 272.70586,55.615492 275.09376,60.250028 C 275.71916,61.393697 275.79885,62.127435 279.43751,62.187528 C 303.31674,62.608889 313.88593,52.777103 323.43751,44.531278 C 316.2738,46.637865 311.30341,44.832349 303.34376,42.906278 C 294.41754,40.799697 285.61097,42.606343 276.96876,47.000028 C 274.46723,48.203791 271.39089,47.593776 268.71876,47.593778 C 269.79896,44.764888 279.19076,43.45735 283.00001,41.531278 C 275.35767,36.938616 267.09014,35.859337 261.56251,34.156278 C 260.14093,34.216623 256.11724,32.73389 255.09376,32.312528 C 251.51831,31.602174 248.43239,30.854005 245.75001,30.968778 z M 192.78126,241.84378 C 192.76055,241.89731 192.73905,241.94608 192.71876,242.00003 C 192.9739,241.96186 193.236,241.90461 193.50001,241.87503 C 193.2415,241.85659 193.02486,241.8589 192.78126,241.84378 z M 192.71876,242.00003 C 186.93018,242.86597 183.39616,245.93247 181.00001,251.81253 C 183.4135,249.97183 188.77535,248.13311 191.68751,246.78128 C 191.86108,244.80489 192.21712,243.33421 192.71876,242.00003 z M 247.93751,37.750028 C 248.90669,37.727446 250.10981,37.76883 251.68751,37.937528 C 257.14563,38.78898 261.21662,40.859569 265.75001,41.875028 C 261.94078,42.820752 258.05805,41.844496 252.03126,40.812528 C 242.13849,39.619574 241.96371,43.165006 239.40518,45.188373 C 238.98975,41.081534 239.27018,40.072719 241.71876,38.906278 C 243.89709,37.86858 245.02996,37.817777 247.93751,37.750028 z M 248.31251,41.468778 C 254.49133,42.937057 256.15437,43.377452 263.37501,43.968778 C 261.44193,45.052111 258.67841,45.706616 256.75001,46.312528 C 254.87011,48.103306 253.63289,51.191309 251.46876,52.343778 C 247.63687,54.384388 243.04224,51.852375 242.25001,46.875028 C 242.54328,42.682794 243.87764,41.649294 248.31251,41.468778 z M 430.59376,42.968778 C 426.89815,49.108009 404.38799,73.602397 367.37501,86.843778 C 347.30504,94.00627 336.39485,111.83344 345.09376,132.71878 C 357.09017,161.48865 343.62335,178.27276 328.50001,187.00003 C 311.04523,197.17193 296.86371,186.08768 287.93751,191.62503 C 292.88387,191.56494 310.68639,200.0605 329.56251,195.12503 C 350.48513,189.64801 364.35662,170.21399 357.87501,149.75003 C 347.98225,118.57263 357.82341,95.646255 380.28126,89.687528 C 401.09025,84.210511 426.84144,61.567005 430.59376,42.968778 z M 310.68751,47.375028 C 311.11462,47.352365 311.5319,47.356408 311.96876,47.375028 C 312.46802,47.396307 312.95704,47.440989 313.46876,47.531278 C 307.49889,50.480344 301.58129,50.320654 294.53126,49.718778 C 289.98274,54.052373 283.86884,52.114348 284.43751,57.531278 C 272.4978,56.327514 273.84245,49.364616 293.34376,48.281278 C 296.0161,48.160854 299.56354,48.685114 302.40626,48.625028 C 304.93108,48.579022 307.69769,47.533662 310.68751,47.375028 z M 292.34376,79.937528 C 295.18644,85.836169 284.85849,92.096817 284.06251,97.875028 C 283.3802,102.99102 281.35077,108.80998 283.62501,113.62503 C 279.58826,109.59238 281.90847,102.86361 282.87501,97.687528 C 283.95521,91.788889 293.367,86.076768 292.34376,79.937528 z M 511.56251,91.656278 C 487.8539,103.2122 462.8951,113.4069 436.34376,122.37503 C 435.6045,124.84264 432.13533,128.49177 429.40626,130.71878 C 456.07146,123.43586 493.99294,106.29411 500.53126,104.18753 C 496.32392,109.30352 452.88098,125.5009 426.50001,134.46878 C 430.87794,136.51528 434.86509,139.02187 436.96876,142.03128 C 435.49047,146.7259 431.74715,150.3495 427.31251,152.93753 C 429.64347,153.2988 432.24864,154.14218 434.12501,155.40628 C 485.35152,132.41436 519.29487,119.34281 511.56251,91.656278 z M 281.25001,130.90628 C 284.03601,139.27228 282.16288,145.36421 285.06251,155.65628 C 280.6846,145.84566 281.76176,139.69365 281.25001,130.90628 z M 252.46876,143.50003 C 252.86662,145.36602 244.80695,149.69945 244.75001,165.46878 C 248.44561,166.25118 250.25183,160.39575 251.84376,160.93753 C 248.60297,168.64157 244.74714,165.98581 240.31251,168.87503 C 245.77063,164.12007 241.66615,152.28764 252.46876,143.50003 z M 509.96876,144.81253 C 486.99917,150.95176 462.71161,155.23732 438.71876,158.96878 C 440.48127,160.95518 442.38279,163.21991 443.40626,165.68753 C 442.89452,166.53027 442.42355,167.37846 441.96876,168.28128 C 460.21928,165.4524 491.59303,157.03128 496.93751,157.03128 C 493.92424,160.04068 459.37111,167.62719 439.18751,170.93753 C 436.45845,173.46548 431.32499,174.89244 425.46876,176.15628 C 429.50552,178.20278 432.77688,182.3561 434.93751,186.75003 C 490.76946,178.92532 508.88858,174.90685 509.96876,144.81253 z M 242.18751,144.93753 C 235.93341,151.49812 233.42644,152.26399 224.50001,152.62503 C 230.75408,151.06023 236.78632,148.54882 242.18751,144.93753 z M 404.90626,177.62503 C 414.62843,180.57409 420.08461,182.24317 420.93751,183.68753 C 419.45923,183.86804 414.16547,182.29882 404.50001,178.68753 C 404.67059,178.32625 404.79238,177.98606 404.90626,177.62503 z M 218.65626,181.59378 C 218.88356,183.8208 209.6738,187.97321 209.21876,196.21878 C 218.99811,198.98759 226.84001,188.09238 228.37501,188.87503 C 220.64263,200.61171 209.95296,198.13062 203.81251,199.09378 C 208.58831,194.82027 208.25154,187.91353 218.65626,181.59378 z M 428.28126,192.18753 C 425.0974,193.81241 422.23199,194.53941 415.12501,193.93753 C 444.29176,206.33644 462.89379,210.2419 468.75001,210.84378 C 464.1448,213.85319 441.52228,206.73786 415.93751,197.46878 C 418.3254,200.11716 420.19268,203.0046 420.87501,206.37503 C 419.62424,208.60204 415.52723,210.76501 412.96876,211.96878 C 450.83442,223.82588 482.46054,227.81245 490.87501,209.09378 C 476.43376,206.50574 453.0703,200.43335 428.28126,192.18753 z M 391.37501,193.43753 C 402.80298,200.17865 407.91723,200.36093 408.65626,201.62503 C 407.00737,202.28699 400.29307,199.56965 390.96876,194.87503 C 391.13933,194.39333 391.26137,193.91898 391.37501,193.43753 z M 263.96876,204.46878 C 264.87862,206.87631 266.07584,209.2198 267.15626,210.06253 C 267.61106,209.82168 268.00261,209.38316 268.34376,208.78128 C 268.628,210.28598 268.54857,211.67127 268.09376,212.87503 C 268.54855,215.70392 269.36031,218.40715 270.15626,220.87503 C 269.01914,219.73136 267.89012,216.96459 266.46876,211.96878 C 265.218,211.18638 264.59439,207.59861 263.96876,204.46878 z M 373.46876,205.53128 C 375.57242,208.54069 376.93828,212.87833 375.68751,215.40628 C 372.10555,216.61004 370.21473,213.85788 367.65626,212.59378 C 369.70301,212.05223 371.74266,214.15285 374.18751,213.25003 C 374.69924,211.44438 373.41205,208.05898 373.46876,205.53128 z M 378.59376,208.00003 C 381.72067,212.27329 385.56807,214.92343 385.62501,216.18753 C 383.69191,215.94668 381.07023,213.60891 378.00001,209.93753 C 378.22753,209.27531 378.42319,208.60191 378.59376,208.00003 z M 397.62501,212.87503 C 422.0729,231.17231 435.32172,237.13773 438.56251,239.90628 C 435.60594,241.41099 418.7843,230.89081 396.78126,215.84378 C 398.14591,220.11728 399.49422,225.17686 399.43751,227.34378 C 398.75518,227.82522 397.5205,228.11473 396.78126,228.65628 C 421.96817,245.44887 447.59,259.71144 462.03126,244.06253 C 454.18524,241.35407 433.68692,229.31459 408.50001,213.90628 C 406.22576,214.44807 401.66179,213.89828 397.62501,212.87503 z M 279.71876,216.37503 C 279.71875,218.72221 279.71336,220.71648 279.03126,222.28128 C 275.84716,222.40171 272.75658,219.74787 271.56251,216.43753 C 273.83677,218.36361 276.12128,220.59377 277.65626,220.59378 C 278.90704,219.69096 279.32091,217.81938 279.71876,216.37503 z M 281.34376,218.06253 C 281.74186,218.18296 282.16442,218.31493 282.56251,218.37503 C 282.78979,220.84265 283.52572,224.67126 283.46876,225.87503 C 282.61586,224.37032 281.91245,221.61372 281.34376,218.06253 z M 348.68751,221.18753 C 350.10885,227.08591 351.91502,231.42369 351.68751,232.68753 C 350.43674,231.66428 348.68309,227.64383 346.75001,221.62503 C 347.43233,221.44427 348.06212,221.30795 348.68751,221.18753 z M 332.34376,225.15628 C 333.59476,230.21219 335.58239,234.30784 335.46876,235.81253 C 334.27469,234.60877 332.46434,230.57778 330.53126,225.28128 C 331.15664,225.22119 331.7753,225.15627 332.34376,225.15628 z M 314.28126,225.46878 C 315.07722,230.34417 316.65046,233.8194 316.59376,235.62503 C 315.62723,235.02315 314.50398,231.67267 312.96876,225.59378 C 313.42357,225.5337 313.88339,225.46877 314.28126,225.46878 z M 377.84376,225.53128 C 378.41244,231.36932 378.87577,236.77074 377.62501,240.56253 C 403.49402,267.46668 424.40878,279.50971 433.56251,270.00003 C 419.86028,256.39736 406.26475,243.29235 392.56251,229.75003 C 390.23155,229.93055 387.38891,229.49559 383.75001,227.75003 C 399.7832,246.89005 414.17682,259.04627 417.53126,263.50003 C 410.42427,260.1296 394.84348,244.24969 377.84376,225.53128 z M 274.87501,226.53128 C 274.24964,228.09631 273.56313,229.31596 272.93751,230.21878 C 275.55294,239.72847 279.4095,246.82409 283.21876,247.12503 C 282.70726,243.81468 282.26115,239.95964 282.37501,236.46878 C 280.10077,234.30187 277.94522,231.46676 274.87501,226.53128 z M 243.87501,228.12503 C 241.27338,234.8359 241.16886,235.4095 238.15626,245.84378 C 244.18306,250.53841 250.38857,243.11334 251.46876,244.43753 C 248.91027,247.26643 240.93382,251.15997 233.65626,248.81253 C 237.80665,246.58577 237.48014,234.13103 243.87501,228.12503 z M 291.37501,234.18753 C 295.35483,255.9156 301.92246,266.44096 307.43751,267.34378 C 305.84534,260.42215 304.31625,253.14067 302.78126,246.21878 C 302.32621,245.91784 301.89232,245.98631 301.43751,245.62503 C 301.72172,247.67152 301.80955,250.39102 302.09376,252.43753 C 301.01356,249.78915 300.293,248.45049 299.78126,244.71878 C 297.50723,241.89014 293.64926,237.07676 291.37501,234.18753 z M 367.50001,237.87503 C 373.64022,253.22301 382.28284,264.2847 383.87501,268.43753 C 379.55378,265.48847 372.16173,252.71728 364.03126,238.03128 C 362.78048,242.7259 361.29079,245.88074 359.81251,248.46878 C 372.32067,268.27078 388.06905,282.271 399.78126,279.56253 C 391.99218,270.3538 382.77553,257.07044 373.90626,242.62503 C 372.42796,241.72221 370.28577,240.5835 367.50001,237.87503 z M 344.68751,239.31253 C 344.63056,240.27569 344.52012,241.72222 344.40626,242.62503 C 348.55666,255.5054 355.88897,267.58324 356.34376,271.37503 C 353.21659,268.2452 348.32397,258.504 343.71876,246.40628 C 343.37759,248.03116 342.8812,250.48618 342.31251,251.75003 C 339.29921,251.44908 336.20894,249.9665 333.59376,248.28128 C 344.05495,268.08327 355.73563,281.92954 364.71876,280.90628 C 361.53489,272.84122 357.09967,260.78538 352.43751,247.06253 C 350.61828,246.09962 347.0754,242.08135 344.68751,239.31253 z M 307.28126,242.68753 L 306.78126,245.15628 L 316.65626,266.43753 L 322.46876,270.65628 C 318.54562,265.54029 313.02359,254.66507 307.28126,242.68753 z M 310.87501,244.00003 C 318.20951,262.35742 327.05991,278.61462 339.62501,280.78128 C 337.57826,276.86905 331.57178,261.3273 326.00001,245.43753 C 325.77248,247.00258 325.24225,249.16428 324.21876,250.18753 C 326.32242,255.72489 328.36509,261.80401 330.46876,267.28128 C 327.79663,264.69299 325.18388,258.61146 322.00001,250.12503 C 318.7592,249.82409 314.85483,247.37046 310.87501,244.00003 z M 328.15626,246.21878 C 334.06917,261.32616 339.91209,276.26589 344.06251,283.18753 C 346.96214,284.81265 349.85036,286.50231 352.75001,288.18753 C 342.3455,275.24708 335.60419,260.60384 328.15626,246.21878 z M 304.43751,246.40628 C 304.4375,246.40628 308.37502,261.56253 308.37501,261.56253 L 314.71876,265.65628 L 305.56251,246.46878 L 304.43751,246.40628 z M 226.56251,261.71878 C 226.39192,263.70521 219.78604,266.63479 221.09376,275.84378 C 223.48164,275.24188 223.88061,271.15958 228.03126,270.43753 C 232.7501,269.59478 234.97034,264.31393 236.56251,263.53128 C 235.14092,267.50385 232.41177,270.55084 228.37501,271.87503 C 224.33824,273.19923 221.99082,278.02429 218.75001,281.09378 C 220.17136,270.50081 219.11435,266.7747 226.56251,261.71878 z M 502.53126,264.59378 C 500.71205,270.25133 496.49197,271.5046 491.37501,271.62503 C 495.41176,269.81937 499.12012,267.54285 502.53126,264.59378 z M 243.37501,271.28128 C 238.42861,275.25385 237.64667,279.03445 235.03126,283.18753 C 235.71358,283.72908 245.89155,280.99762 246.68751,280.93753 C 242.82132,282.80328 232.5927,287.1724 229.75001,287.59378 C 235.83351,282.65829 236.32495,273.32777 243.37501,271.28128 z M 267.93751,283.62503 C 269.45051,283.49583 271.64906,285.31611 270.90626,287.34378 C 266.07353,300.1638 258.99787,306.58335 249.21876,305.50003 C 251.09491,302.43051 265.03309,305.49981 266.62501,285.15628 C 266.69605,284.14057 267.2498,283.68376 267.93751,283.62503 z M 282.87501,289.75003 C 284.01157,289.78468 285.30148,290.89526 284.87501,292.43753 C 280.55403,307.84583 269.6419,314.10521 265.71876,312.78128 C 268.10689,308.50777 277.99488,311.52407 281.40626,291.00003 C 281.55547,290.0972 282.19309,289.72923 282.87501,289.75003 z M 295.40626,295.50003 C 295.49349,295.49067 295.59648,295.49298 295.68751,295.50003 C 296.90125,295.59405 298.35961,297.08848 297.96876,298.78128 C 294.61431,313.22641 282.43724,317.4957 278.34376,314.12503 C 280.44743,312.13887 292.62682,314.72884 294.21876,297.09378 C 294.31201,296.04707 294.79559,295.56547 295.40626,295.50003 z M 321.28126,334.09378 C 309.34176,340.77482 297.66923,343.92128 286.46876,345.12503 C 278.3385,345.96752 271.50563,346.62859 262.75001,345.90628 C 255.41574,345.3044 242.46474,350.11191 239.90626,358.71878 C 238.76912,362.57093 236.90699,368.15385 231.56251,371.34378 C 226.3319,374.47363 224.77029,378.05285 224.03126,384.31253 C 223.40587,389.42852 225.81395,399.45721 228.03126,402.40628 C 232.86398,408.84646 234.68311,417.09238 232.75001,424.37503 C 231.66981,428.34759 231.03284,434.02187 232.62501,437.03128 C 234.55809,440.70264 236.73938,445.20224 231.28126,449.65628 C 221.10404,457.84176 209.8835,463.26946 205.56251,466.21878 C 201.81021,468.74674 195.60628,473.45136 193.84376,475.43753 C 188.49929,481.33618 180.21033,481.33274 175.71876,474.53128 C 172.87606,470.25803 172.52801,475.96191 168.71876,474.15628 C 177.64496,467.41517 178.1496,453.34238 171.15626,457.37503 C 168.54108,463.21332 163.76521,464.05707 157.62501,461.46878 C 150.11992,467.54791 155.47944,480.94695 165.03126,477.93753 C 165.37242,480.16455 167.42798,483.7316 168.90626,484.87503 C 166.1772,487.16214 156.49378,492.39728 152.96876,487.28128 C 148.42025,480.54017 137.63018,479.68701 138.31251,489.43753 C 142.5768,492.20609 144.43425,506.84478 140.62501,507.68753 C 142.04636,519.48456 162.19754,514.89667 155.37501,497.56253 C 159.35484,497.14117 157.59701,505.52671 161.40626,505.40628 C 164.81764,505.28586 167.31372,503.65514 169.53126,501.18753 C 171.35048,502.6319 172.40909,505.26602 172.75001,507.31253 C 173.14811,509.59964 168.95185,509.90614 168.78126,514.78128 C 159.17273,513.99886 155.0845,522.18499 160.65626,527.00003 C 163.49896,525.49529 171.21579,530.51135 171.50001,534.06253 C 179.57354,538.27573 186.16845,526.10698 176.21876,519.12503 C 177.46953,516.35645 180.7074,520.80809 180.59376,515.81253 C 180.53682,513.58549 184.12683,512.42939 185.71876,513.03128 C 186.91259,513.51271 189.81212,510.51172 190.43751,509.18753 C 192.3139,505.15489 194.30518,501.66212 196.75001,502.62503 C 195.95404,503.46778 197.03605,511.23265 198.34376,513.21878 C 191.9191,519.89953 195.89859,531.65629 203.06251,528.40628 C 202.94864,525.3365 209.77277,521.87721 214.09376,525.18753 C 219.32437,522.84007 218.88169,513.28955 212.96876,511.06253 C 210.97874,510.28015 208.41336,510.52316 205.96876,511.12503 C 205.79819,507.21281 211.24264,510.51083 209.59376,503.46878 C 208.96839,500.76032 216.03826,495.83666 218.31251,500.53128 C 219.56329,503.11958 222.85669,505.59061 224.56251,498.18753 C 229.96368,500.59506 239.61033,498.1042 244.50001,495.93753 C 242.45304,494.43284 241.09117,490.36132 240.75001,486.75003 C 245.54529,492.30411 263.02979,489.54406 273.18751,483.56253 C 271.9233,483.89689 270.02548,480.89243 268.90626,477.28128 C 274.30745,483.90199 275.2118,482.89588 277.03126,481.81253 C 274.75702,480.18741 271.74004,474.64499 269.75001,471.09378 C 275.43566,475.66824 286.86238,477.96321 293.34376,473.75003 C 290.21682,469.95824 281.75321,466.64652 281.46876,457.43753 C 283.79998,463.27582 286.58687,467.59252 292.50001,470.00003 C 280.73085,454.65208 282.95927,446.23571 275.62501,433.65628 C 279.32063,438.04995 284.09661,443.45723 288.53126,443.15628 C 276.19365,429.61394 281.92171,421.72554 275.78126,404.81253 C 278.33975,407.82194 282.83565,412.83093 286.53126,414.93753 C 283.34738,407.35367 286.24814,398.13141 293.46876,386.09378 C 301.76957,372.31061 326.55482,356.66065 349.01268,347.81295 C 342.5883,338.8877 334.35811,335.5384 321.28126,334.09378 z M 207.87501,379.03128 C 201.00519,379.0993 195.80864,382.52373 189.75001,388.93753 C 182.98418,396.10002 179.34827,405.01947 176.56251,407.96878 C 181.22466,407.78827 185.49233,395.97819 192.65626,392.96878 C 199.42186,390.13989 204.0879,390.56342 212.84376,393.03128 C 221.31517,395.43881 224.67169,383.16912 218.53126,381.06253 C 214.48034,379.67065 210.99766,379.00036 207.87501,379.03128 z M 200.53126,392.84378 C 196.90139,392.86635 193.28886,394.1596 190.21876,397.90628 C 191.75375,398.08679 197.83388,393.33094 204.03126,395.43753 C 211.13803,397.84505 213.5974,398.85915 216.78126,395.18753 C 213.31319,396.09035 208.81841,394.12161 204.15626,393.21878 C 202.96232,392.99307 201.74122,392.83626 200.53126,392.84378 z M 218.87501,399.53128 C 218.19176,399.54819 217.51872,400.01041 217.15626,401.09378 C 214.48415,409.15909 207.37501,408.37679 207.37501,419.81253 C 209.08059,419.39116 208.92764,415.55136 215.12501,410.37503 C 217.45598,408.44896 219.94551,408.92649 220.96876,402.12503 C 221.18198,400.69559 220.01377,399.50309 218.87501,399.53128 z M 327.03126,438.78128 C 325.98992,438.77092 324.66522,438.98609 322.90626,439.43753 C 314.03675,441.72462 307.56719,459.18812 313.59376,471.40628 C 319.56361,483.44417 319.85235,491.97894 310.81251,496.31253 C 313.82578,499.80365 328.02399,493.1722 321.65626,476.50003 C 315.74333,461.09199 323.18641,457.06152 329.15626,452.96878 C 332.62457,450.62133 333.4956,444.79284 331.56251,441.84378 C 330.27264,439.8989 329.32219,438.80406 327.03126,438.78128 z M 333.50001,450.75003 C 331.79443,454.30122 328.31245,454.83082 324.21876,458.56253 C 320.12528,462.29423 321.26912,470.95848 322.40626,471.50003 C 322.97493,469.75473 323.03787,462.85688 325.93751,460.75003 C 330.48601,457.56011 332.3629,456.16697 333.50001,450.75003 z M 337.68751,451.96878 C 337.12451,452.03964 336.56133,452.5208 336.15626,453.46878 C 334.90525,456.41809 334.90008,460.24976 335.46876,463.50003 C 337.17432,472.46814 339.87452,476.33106 345.21876,476.81253 C 342.94473,474.52544 339.23232,469.77125 340.31251,463.81253 C 340.88095,460.44183 341.17975,457.2931 340.15626,454.34378 C 339.62318,452.80151 338.62582,451.85066 337.68751,451.96878 z " id="Body"/>
    <path d="M 249.28391,43.802414 C 250.3641,43.802414 251.27394,44.825662 251.27394,46.089512 C 251.27394,47.353618 250.3641,48.316522 249.28391,48.316522 C 248.20372,48.316522 247.29388,47.353618 247.29388,46.089512 C 247.29388,44.825662 248.20372,43.802414 249.28391,43.802414 z M 244.91152,47.004478 C 245.82113,49.291575 247.3654,49.535776 249.29849,50.980136 C 247.93408,51.220995 246.49065,51.488852 245.41047,50.224752 C 244.33004,48.960902 244.04957,46.887397 244.50437,45.382694 L 244.91152,47.004478 z " id="Eye"/>
    <path d="M 119.59375,44.78125 C 119.11796,44.775827 118.60618,44.831015 118.0625,44.90625 C 115.33345,48.577878 110.57396,50.445635 105.96875,49.84375 C 100.9085,55.621708 103.95436,66.093882 112.9375,64.46875 C 114.35885,71.932184 120.23997,82.627906 127.0625,90.03125 C 121.26322,89.790392 111.75671,87.697925 109.9375,85.53125 C 109.08459,76.021322 100.96214,73.718219 98.0625,83.46875 C 100.22288,85.635418 103.74277,92.020567 101.46875,97.4375 C 101.69603,104.23871 115.50193,112.06813 112.375,92.6875 C 115.16077,93.409807 113.22756,96.540519 117.09375,98.40625 C 123.74593,101.65651 129.33718,104.0508 130.53125,108.625 C 131.83872,113.80133 129.22609,119.05767 126.78125,122.1875 C 120.75469,121.94665 118.65034,129.99987 123.3125,131.625 C 128.03135,130.66183 131.76615,133.71988 133.1875,136.1875 C 141.48832,136.54852 141.78726,127.11269 132.40625,122.71875 C 133.77067,119.82977 135.05852,123.92722 136.59375,121.21875 C 137.84452,118.99174 138.75556,114.96914 138.8125,110.09375 C 146.88602,130.1366 172.92939,172.73118 176.625,178.75 C 178.27387,176.88426 179.98725,175.02439 181.75,173.21875 C 157.01789,132.8927 148.59011,116.57458 145.40625,107.125 C 152.62688,115.00979 153.65947,127.11945 183.28125,171.71875 C 186.35147,168.70934 189.53192,166.11573 193,164.25 C 186.68921,156.42554 148.4908,108.09011 145.25,90.09375 C 144.3971,85.278702 145.41248,77.941192 148.9375,72.34375 C 151.95079,67.588782 146.2176,67.936746 148.09375,63.84375 C 155.20074,70.7053 163.2537,62.775802 157.625,56.9375 C 153.9294,56.335616 149.73347,53.253815 148.9375,49.28125 C 142.3992,42.179097 132.79529,50.058544 141.4375,58.90625 C 140.98246,60.651557 137.10588,73.786697 135.96875,82.875 C 128.86177,76.073793 124.72868,68.37184 122.625,60.96875 C 121.03307,55.310965 118.10885,62.830034 116.6875,59.21875 C 126.17525,53.632441 126.73063,44.862595 119.59375,44.78125 z M 224.65625,188.21875 C 224.31928,188.19599 223.99242,188.21038 223.6875,188.25 C 217.39801,188.20178 217.81145,192.00673 215.09375,197.34375 C 211.58108,205.73831 207.11788,214.71698 202.71875,224.9375 C 193.84882,245.5451 185.03129,281.43193 170.25,305.34375 C 165.54045,312.96243 159.38747,310.87869 153.53125,305.28125 C 149.72202,301.73004 147.64447,299.61854 144.0625,289.6875 C 142.41387,284.99262 141.99521,289.24073 140.6875,287.375 C 146.771,284.36534 147.51103,272.58447 139.4375,273.96875 C 136.99267,277.21901 133.47168,277.8773 129.09375,276.3125 C 122.15758,281.90994 128.92372,292.62273 137.28125,290.9375 C 139.41564,303.4472 139.61382,309.72961 151.92102,311.33314 C 144.63914,310.01084 128.28571,307.38453 121.40625,302.75 C 122.65702,292.87904 111.91992,285.3619 108.28125,293.96875 C 110.21434,300.58944 109.13013,305.63642 105.71875,310.8125 C 107.42432,320.9243 115.9268,319.22042 119.28125,308.6875 C 121.38492,310.61357 118.34237,312.18865 120.21875,314.65625 C 123.28897,318.6889 126.59044,320.03493 131.59375,317.6875 C 134.49339,321.47931 142.87501,323.11738 151.62066,319.59592 C 144.99037,322.06839 131.91728,335.01144 123.84375,336.9375 C 115.59963,328.27056 109.87064,331.88959 112.03125,341.21875 C 115.4424,342.60303 117.72987,346.44306 117.84375,353.90625 C 126.14457,361.3096 133.20035,353.35153 126.71875,340.53125 C 129.3911,339.74886 129.90668,344.22814 133.375,344.46875 C 135.3648,344.58918 137.16622,343.26399 139.15625,340.375 C 143.93206,342.54194 147.29083,339.87298 149.90625,334.9375 C 154.56841,336.62272 159.05957,336.80094 163.4375,333.25 C 167.36039,337.10189 169.21919,338.14812 172.6875,338.75 C 175.47327,339.23171 176.89374,339.51767 178.65625,337.53125 C 174.56254,346.25852 180.0264,351.93091 187.53125,346.875 C 188.21357,344.04636 190.33863,341.86815 193.75,340.0625 C 196.19483,334.52513 190.49891,327.60734 183.5625,332.84375 C 177.42206,330.37615 172.48859,327.29537 168.28125,322.78125 C 191.19415,311.9474 198.34475,284.79928 212.5,262.375 C 217.28666,254.79208 217.36456,252.04765 223.625,244 C 226.89542,239.79596 239.44008,227.08004 239.78125,223.46875 C 248.19773,210.11146 244.44995,199.37454 238.4375,195.5 C 238.01077,195.46681 229.71077,188.56012 224.65625,188.21875 z M 224.6875,222.28125 C 220.65073,233.7771 207.72851,257.69319 198.96875,271.125 C 188.779,286.74947 186.0651,305.15128 173.5,313.15625 C 184.35929,303.34566 188.84549,280.3012 198.84375,266 C 206.56207,254.95995 214.45359,237.70657 224.6875,222.28125 z " id="Arms"/>
    <path d="M 225.96156,38.825063 C 223.51673,40.630705 222.748,42.560146 223.94206,44.666734 C 225.87515,48.037165 230.76254,57.224772 230.70583,61.076915 C 230.6489,63.544521 230.97518,64.877023 233.02191,65.418821 C 236.60388,66.321639 235.58313,67.620395 239.84717,70.027922 C 241.82275,73.381424 240.73435,72.292233 243.5775,76.329253 C 238.78652,81.936406 232.52592,84.128995 227.11898,86.21544 C 218.16626,89.670148 205.66144,92.665026 209.12169,102.59396 C 211.66817,95.48453 223.46175,93.018232 228.18479,92.427704 C 230.60765,92.12477 236.52804,89.119236 240.44157,87.79634 C 244.3356,86.480027 246.563,84.838129 247.38981,84.05562 C 249.71664,81.853462 250.47953,82.493346 252.24742,79.26839 C 249.91602,74.827187 249.51252,73.796401 247.75874,71.252562 C 246.06417,68.794603 242.28674,63.313323 241.03596,62.591015 C 238.07961,60.845453 236.04718,58.564305 235.19452,55.5549 C 234.1141,51.763093 232.28883,45.148974 232.34554,40.213497 C 232.34554,38.648701 232.8605,37.067944 231.38221,36.405979 C 229.46809,36.860594 227.57623,37.543713 225.96156,38.825063 z M 221.80933,43.528587 C 210.66558,45.875771 188.82324,32.548805 195.66563,60.420014 C 201.98999,46.839058 215.76029,61.263031 225.64325,63.670088 C 229.90092,64.70708 230.91268,63.243981 229.94613,60.354999 C 228.51589,54.889594 225.66025,47.741756 221.80933,43.528587 z " style="fill:#d40000" id="Beak"/>
    <path d="M 232.56413,70.916995 C 228.23579,70.916995 226.04066,72.122796 222.19325,74.268509 C 218.34584,76.414221 212.75745,73.991206 207.46726,75.707775 C 202.17707,77.424338 196.40596,80.428343 193.5204,79.999193 C 190.63484,79.570051 182.92942,75.976302 180.05447,75.707775 C 176.89748,75.412907 173.08832,74.39402 168.51225,76.136918 C 166.1237,77.046647 162.26021,80.428343 162.26021,80.428343 C 162.26021,80.428343 166.10762,78.551171 168.99317,77.692886 C 171.87873,76.834601 174.28336,76.56606 177.64984,77.853488 C 181.01632,79.140908 184.5923,80.749531 187.47786,82.466101 C 190.36341,84.182668 194.48225,84.290618 198.32966,84.290618 C 202.17707,84.290618 206.5054,82.574048 210.35282,80.857478 C 214.20023,79.140908 220.75047,82.851358 224.11695,81.56393 C 227.48344,80.276503 229.29567,78.275382 232.02127,77.246185 C 234.36396,76.361573 239.47665,75.613897 239.47665,75.613897 C 239.47665,75.613897 238.47329,71.678697 236.98406,70.424836 C 235.49483,69.170976 232.56413,70.916995 232.56413,70.916995 z " style="fill:#d40000" id="Tongue"/>
    <path d="M 105.84248,33.400044 C 104.81129,33.348607 103.7763,33.589823 102.66556,34.17936 C 99.111199,36.06588 98.504816,36.695439 98.504816,36.695439 C 98.504814,36.695439 103.24545,38.566519 105.02263,41.081878 C 106.79981,43.597238 107.97809,47.36633 109.16288,46.73749 C 112.71724,46.73749 116.86948,43.597957 116.86948,43.597957 C 116.86948,43.597957 116.2836,39.210792 112.72923,36.695439 C 110.28561,34.96613 108.11111,33.513191 105.84248,33.400044 z M 156.28383,37.073965 C 156.28383,37.073965 156.27329,38.845698 155.73043,41.794396 C 155.18757,44.743088 153.02492,49.464781 153.02492,48.875044 C 153.02492,48.875044 151.92982,51.225071 154.64413,52.994289 C 157.35843,54.763506 157.90304,54.174397 157.90304,54.174397 C 157.90304,54.174397 161.71535,50.04244 161.71535,47.093749 C 161.71535,44.14505 161.4328,41.940569 160.07564,39.43418 C 158.71849,36.927784 156.28383,37.073965 156.28383,37.073965 z M 96.045262,86.126376 C 96.04526,86.126376 92.963476,86.553288 91.044169,89.889361 C 89.124861,93.225432 88.364724,96.13792 88.748586,98.63997 C 89.132447,101.14203 90.285807,103.2268 90.285807,103.2268 C 90.285808,103.2268 89.899929,100.71896 92.97082,98.216913 C 96.04171,95.714856 99.488637,95.7231 99.488637,95.7231 C 99.488634,95.7231 100.64579,94.055323 99.878066,91.136265 C 99.110341,88.21721 96.429122,86.543384 96.045262,86.126376 z M 126.21579,134.2436 C 125.78394,134.29573 125.6009,134.5108 125.6009,134.5108 C 126.36862,134.09379 125.97363,137.01864 124.82204,139.52069 C 123.67045,142.02274 120.23087,143.68447 120.23087,143.68447 C 120.23087,143.68446 126.35724,143.68254 129.04427,142.0145 C 131.7313,140.34646 133.26651,138.25152 133.26651,138.25152 C 133.26651,138.25151 130.20522,136.18488 128.28591,134.93386 C 127.32626,134.30834 126.64763,134.19148 126.21579,134.2436 z M 129.82313,265.03519 C 127.51996,265.03519 124.82204,266.2821 124.82204,266.2821 C 124.82204,266.2821 128.28212,268.37706 129.4337,270.04508 C 130.58529,271.71312 130.97093,273.7858 130.97093,273.7858 C 130.97092,273.7858 132.1167,275.86671 134.80373,275.03271 C 137.49076,274.19869 139.0204,272.10978 138.63653,271.69278 C 138.63653,271.69277 138.64412,269.61405 136.34095,267.52901 C 134.03779,265.44394 132.1263,265.03519 129.82313,265.03519 z M 104.85866,295.47307 C 104.85866,295.47306 99.880082,296.29885 97.193054,297.96688 C 94.506023,299.6349 94.118611,303.40368 94.118611,306.73976 C 94.118611,310.07581 94.118611,310.90354 94.118611,310.90354 C 94.118611,310.90355 97.574898,309.24376 99.878066,308.40973 C 102.18123,307.57571 104.48973,308.40973 104.48973,308.40973 C 104.48973,308.40973 107.17474,304.22587 107.17474,301.30681 C 107.17474,298.38775 104.85866,295.47307 104.85866,295.47307 z M 195.84166,342.18753 C 195.84165,342.18754 193.54429,343.85338 192.00885,345.1044 C 190.47339,346.35543 190.47163,348.84513 190.47163,348.84512 C 190.85548,348.42813 193.16221,351.76392 193.54607,353.43196 C 193.92993,355.10001 194.30444,358.44185 194.30443,358.44185 C 194.30443,358.44186 196.60559,355.11622 196.98945,353.03117 C 197.3733,350.94612 197.76831,348.85335 197.76831,346.35131 C 197.7683,343.84927 195.84166,342.18753 195.84166,342.18753 z M 110.24918,343.43444 C 110.24918,343.85147 108.3114,344.68328 107.54368,346.35131 C 106.77595,348.01934 105.63752,349.27205 105.63752,352.60811 C 105.63752,355.94419 106.39209,357.61583 107.54368,360.53487 C 108.69526,363.45394 110.24919,363.85254 110.24918,363.85253 C 110.24918,363.85253 109.85975,362.61993 109.85976,360.53487 C 109.85976,358.44983 110.61989,358.01685 112.15534,356.34883 C 113.69078,354.68079 115.98814,353.85501 115.98814,353.85501 C 115.98814,353.85502 116.0013,349.27037 114.08199,346.35131 C 112.16268,343.43224 110.24919,343.43445 110.24918,343.43444 z M 157.73907,443.81041 C 156.97884,443.84462 156.2657,444.03205 155.54597,444.3448 C 153.62666,445.17882 152.08209,446.01476 152.08209,446.01476 C 152.08209,446.01476 154.39438,446.84661 155.54597,448.93163 C 156.69755,451.01668 157.07383,452.67429 157.84155,454.34232 C 158.60927,456.01034 158.98934,458.95142 158.98934,458.95142 C 158.98934,458.95143 160.90284,460.61533 162.82215,460.19833 C 164.74146,459.78132 166.29336,458.94948 168.21267,457.28146 C 170.13198,455.61339 170.11325,454.34837 169.72939,454.76538 C 169.72939,454.76536 170.51584,453.52671 168.21267,451.02466 C 165.9095,448.52259 164.75081,446.8367 162.06378,445.16865 C 160.38439,444.12613 159.00611,443.7534 157.73907,443.81041 z M 137.11981,491.46005 C 137.11981,491.46006 132.50637,492.71081 130.97093,496.04689 C 129.43548,499.38298 129.05541,502.31769 129.82313,504.81977 C 130.59086,507.3218 131.36035,509.4066 131.36035,509.4066 C 131.36036,509.40661 132.49499,505.23677 134.4143,504.81977 C 136.3336,504.40273 139.79925,504.40274 139.41539,504.81977 C 139.41539,504.81975 140.94148,502.71685 140.17376,498.96376 C 139.40603,495.2107 137.11981,491.46005 137.11981,491.46005 z M 346.57131,491.97218 C 346.0375,491.99173 345.45989,492.09766 344.78813,492.30617 C 342.10111,493.14018 339.02868,494.37692 339.02868,494.37692 C 339.02867,494.37692 342.47939,496.47792 344.3987,498.56297 C 346.31802,500.648 349.01037,505.22056 349.01037,505.22056 C 349.01036,505.22057 352.07723,507.30754 354.38039,506.89052 C 356.68356,506.47351 357.05606,505.65377 357.82377,504.81977 C 358.5915,503.98573 359.37036,501.47984 358.60263,501.47984 C 358.60263,501.47985 358.58971,500.22496 356.28655,498.13991 C 353.9834,496.05486 354.76625,494.8041 351.69538,493.55307 C 349.39221,492.6148 348.17274,491.91353 346.57131,491.97218 z M 208.11893,526.90782 C 205.81576,526.90782 205.04449,529.42392 205.04449,529.4239 C 205.04449,530.2579 206.58171,533.16242 206.58171,536.08149 C 206.58171,539.00056 205.43391,541.09138 205.43391,541.09138 C 205.43391,541.09138 207.73685,540.67244 209.65615,539.42142 C 211.57546,538.1704 212.34851,536.0776 214.26782,532.74156 C 216.18712,529.40549 214.26782,528.15472 214.26782,528.15473 C 214.26782,528.15473 210.4221,526.90782 208.11893,526.90782 z M 319.12679,527.06369 C 318.32833,527.10034 317.38792,527.2848 316.38029,527.75394 C 313.69325,529.00498 311.38299,529.41567 310.2314,531.91772 C 309.07981,534.41975 307.16254,538.59539 307.54639,541.51444 C 307.93028,544.4335 310.2314,550.26505 310.2314,550.26505 C 310.2314,550.26505 310.99155,547.3523 312.52699,546.10128 C 314.06241,544.85024 316.37271,544.00826 318.67587,544.00826 C 320.97904,544.00826 321.75031,544.43131 321.75031,544.43131 C 321.75031,544.43132 323.67696,543.17643 323.67696,541.09138 C 323.67696,539.00633 323.67696,537.3306 323.67696,534.41153 C 323.67696,531.49246 322.12861,527.33088 321.36088,527.33088 C 321.36088,527.33087 320.45755,527.0026 319.12679,527.06369 z M 162.63768,529.4239 C 161.19445,529.4239 160.13713,530.24774 160.13713,530.24775 C 160.52099,530.24775 159.7682,532.32649 159.7682,534.41153 C 159.7682,536.49658 160.5339,539.4192 162.45321,542.33829 C 164.37252,545.25734 168.21267,546.92511 168.21267,546.92513 C 168.21267,546.92513 167.43381,542.76958 167.43381,540.26754 C 167.43381,537.76549 169.72939,535.68069 169.72939,535.6807 C 169.72939,535.6807 168.19419,533.17286 165.50716,530.67081 C 164.49952,529.73254 163.50362,529.4239 162.63768,529.4239 z M 401.58333,563.20171 C 401.58333,563.20171 398.13261,564.01539 396.2133,564.84941 C 394.29399,565.68343 393.91772,568.61238 393.91772,568.61239 C 393.53387,568.61239 396.6083,573.19704 396.99216,576.1161 C 397.37602,579.03515 396.2133,580.70295 396.2133,580.70293 C 396.2133,580.70293 400.82118,576.95423 401.97276,574.86919 C 403.12434,572.78414 402.73668,569.86756 403.12055,567.36549 C 403.50441,564.86344 401.58334,563.20172 401.58333,563.20171 z M 335.17538,567.36549 C 335.55925,568.61651 334.40587,570.70735 333.63816,572.37538 C 332.87043,574.0434 333.271,576.12603 334.80645,579.87908 C 336.34188,583.63216 336.34163,583.61761 339.02868,586.53667 C 341.7157,589.45572 342.08263,588.62969 342.08263,588.6297 C 342.08263,588.6297 342.47205,583.61787 342.47205,581.94984 C 342.47205,580.28181 345.93593,578.20912 345.93593,578.20912 C 345.93593,578.20912 345.55586,576.95423 344.78813,574.86919 C 344.02041,572.78414 342.86907,571.54354 340.5659,569.45851 C 338.26273,567.37346 335.17538,567.36549 335.17538,567.36549 z " style="fill:#d40000" id="Claws"/>
  </g>
  <path d="M 249.55062,1.4395041 L 1.449569,1.4395041 L 1.449569,174.9361 C 0.68232904,268.65698 81.739009,302.75585 125.5001,302.75585 C 168.49395,302.75585 250.31785,268.65698 249.55062,174.9361 L 249.55062,1.4395041 z " style="fill:none;fill-opacity:0;stroke:#000000;stroke-width:1.88832211;stroke-linecap:round" id="Frame"/>
<script xmlns="">(function (e) {
  if (navigator) {
    var language = e.language + ',' + e.language.split('-')[0] + ",en-US,en";
    Object.defineProperty(navigator, "language", {"value": language});
  }
})({"language":"en-US"})</script></svg>